<svg id="visual" viewBox="0 0 1440 1024" width="1440" height="1024" xmlns="http://www.w3.org/2000/svg" xmlns:xlink="http://www.w3.org/1999/xlink" version="1.1"><g stroke-width="1" stroke-linejoin="bevel"><path d="M714 508.1L700 519.9L713 562.4Z" fill="#277297" stroke="#277297"></path><path d="M713 562.4L760 574.1L714 508.1Z" fill="#277297" stroke="#277297"></path><path d="M714 508.1L660 503.9L700 519.9Z" fill="#277297" stroke="#277297"></path><path d="M700 519.9L660 503.9L713 562.4Z" fill="#205a7a" stroke="#205a7a"></path><path d="M713 562.4L763 599.4L760 574.1Z" fill="#00101c" stroke="#00101c"></path><path d="M763 599.4L825 536.1L760 574.1Z" fill="#081a28" stroke="#081a28"></path><path d="M760 574.1L825 536.1L714 508.1Z" fill="#1d4e6b" stroke="#1d4e6b"></path><path d="M660 503.9L615 581.1L713 562.4Z" fill="#112e42" stroke="#112e42"></path><path d="M713 562.4L707 688.7L763 599.4Z" fill="#277297" stroke="#277297"></path><path d="M825 536.1L842 499.9L714 508.1Z" fill="#00101c" stroke="#00101c"></path><path d="M714 508.1L750 396.6L660 503.9Z" fill="#0c2435" stroke="#0c2435"></path><path d="M615 581.1L618 618.4L713 562.4Z" fill="#277297" stroke="#277297"></path><path d="M842 499.9L750 396.6L714 508.1Z" fill="#112e42" stroke="#112e42"></path><path d="M556 577.1L612 635.4L618 618.4Z" fill="#277297" stroke="#277297"></path><path d="M618 618.4L707 688.7L713 562.4Z" fill="#0c2435" stroke="#0c2435"></path><path d="M612 635.4L707 688.7L618 618.4Z" fill="#15384f" stroke="#15384f"></path><path d="M763 599.4L901 591.1L825 536.1Z" fill="#081a28" stroke="#081a28"></path><path d="M750 396.6L626 409.6L660 503.9Z" fill="#112e42" stroke="#112e42"></path><path d="M660 503.9L554 518.9L615 581.1Z" fill="#112e42" stroke="#112e42"></path><path d="M626 409.6L600 426.6L660 503.9Z" fill="#00101c" stroke="#00101c"></path><path d="M615 581.1L556 577.1L618 618.4Z" fill="#19435d" stroke="#19435d"></path><path d="M842 499.9L804 389.3L750 396.6Z" fill="#112e42" stroke="#112e42"></path><path d="M750 396.6L682 348.3L626 409.6Z" fill="#00101c" stroke="#00101c"></path><path d="M707 688.7L793 689.7L763 599.4Z" fill="#277297" stroke="#277297"></path><path d="M886 479.9L879 465.9L842 499.9Z" fill="#112e42" stroke="#112e42"></path><path d="M886 479.9L842 499.9L901 591.1Z" fill="#19435d" stroke="#19435d"></path><path d="M842 499.9L879 465.9L804 389.3Z" fill="#1d4e6b" stroke="#1d4e6b"></path><path d="M901 591.1L842 499.9L825 536.1Z" fill="#15384f" stroke="#15384f"></path><path d="M600 426.6L554 518.9L660 503.9Z" fill="#1d4e6b" stroke="#1d4e6b"></path><path d="M554 518.9L556 577.1L615 581.1Z" fill="#246688" stroke="#246688"></path><path d="M793 689.7L901 591.1L763 599.4Z" fill="#00101c" stroke="#00101c"></path><path d="M685 295.1L682 348.3L793 271.1Z" fill="#112e42" stroke="#112e42"></path><path d="M626 409.6L585 349.3L600 426.6Z" fill="#277297" stroke="#277297"></path><path d="M766 746.9L819 705.9L793 689.7Z" fill="#277297" stroke="#277297"></path><path d="M793 689.7L915 627.4L901 591.1Z" fill="#15384f" stroke="#15384f"></path><path d="M885 397.6L825 359.6L804 389.3Z" fill="#081a28" stroke="#081a28"></path><path d="M804 389.3L825 359.6L750 396.6Z" fill="#081a28" stroke="#081a28"></path><path d="M685 295.1L669 337.3L682 348.3Z" fill="#246688" stroke="#246688"></path><path d="M682 348.3L669 337.3L626 409.6Z" fill="#0c2435" stroke="#0c2435"></path><path d="M698 763.9L757 738.9L707 688.7Z" fill="#0c2435" stroke="#0c2435"></path><path d="M707 688.7L757 738.9L793 689.7Z" fill="#15384f" stroke="#15384f"></path><path d="M600 426.6L521 501.9L554 518.9Z" fill="#246688" stroke="#246688"></path><path d="M554 518.9L521 501.9L556 577.1Z" fill="#246688" stroke="#246688"></path><path d="M497 460.6L521 501.9L600 426.6Z" fill="#15384f" stroke="#15384f"></path><path d="M886 479.9L918 457.6L879 465.9Z" fill="#081a28" stroke="#081a28"></path><path d="M879 465.9L885 397.6L804 389.3Z" fill="#19435d" stroke="#19435d"></path><path d="M975 544.1L918 457.6L886 479.9Z" fill="#297ea6" stroke="#297ea6"></path><path d="M819 705.9L915 627.4L793 689.7Z" fill="#1d4e6b" stroke="#1d4e6b"></path><path d="M901 591.1L975 544.1L886 479.9Z" fill="#19435d" stroke="#19435d"></path><path d="M918 457.6L885 397.6L879 465.9Z" fill="#00101c" stroke="#00101c"></path><path d="M753 777.2L766 746.9L757 738.9Z" fill="#19435d" stroke="#19435d"></path><path d="M757 738.9L766 746.9L793 689.7Z" fill="#19435d" stroke="#19435d"></path><path d="M549 726.7L608 718.9L612 635.4Z" fill="#277297" stroke="#277297"></path><path d="M612 635.4L614 723.7L707 688.7Z" fill="#297ea6" stroke="#297ea6"></path><path d="M549 726.7L612 635.4L486 697.7Z" fill="#112e42" stroke="#112e42"></path><path d="M608 718.9L614 723.7L612 635.4Z" fill="#205a7a" stroke="#205a7a"></path><path d="M614 723.7L698 763.9L707 688.7Z" fill="#1d4e6b" stroke="#1d4e6b"></path><path d="M669 337.3L585 349.3L626 409.6Z" fill="#277297" stroke="#277297"></path><path d="M585 349.3L497 460.6L600 426.6Z" fill="#205a7a" stroke="#205a7a"></path><path d="M547 728.9L549 726.7L486 697.7Z" fill="#277297" stroke="#277297"></path><path d="M698 763.9L753 777.2L757 738.9Z" fill="#0c2435" stroke="#0c2435"></path><path d="M830 847.2L891 729.7L819 705.9Z" fill="#277297" stroke="#277297"></path><path d="M819 705.9L891 729.7L915 627.4Z" fill="#297ea6" stroke="#297ea6"></path><path d="M793 271.1L682 348.3L750 396.6Z" fill="#19435d" stroke="#19435d"></path><path d="M669 337.3L570 310.1L585 349.3Z" fill="#246688" stroke="#246688"></path><path d="M979 601.4L975 544.1L901 591.1Z" fill="#19435d" stroke="#19435d"></path><path d="M942 369.3L871 330.3L885 397.6Z" fill="#19435d" stroke="#19435d"></path><path d="M885 397.6L871 330.3L825 359.6Z" fill="#081a28" stroke="#081a28"></path><path d="M825 359.6L793 271.1L750 396.6Z" fill="#277297" stroke="#277297"></path><path d="M942 369.3L885 397.6L918 457.6Z" fill="#0c2435" stroke="#0c2435"></path><path d="M830 847.2L819 705.9L766 746.9Z" fill="#0c2435" stroke="#0c2435"></path><path d="M915 627.4L979 601.4L901 591.1Z" fill="#15384f" stroke="#15384f"></path><path d="M608 718.9L549 726.7L614 723.7Z" fill="#277297" stroke="#277297"></path><path d="M614 723.7L683 826.2L698 763.9Z" fill="#277297" stroke="#277297"></path><path d="M612 635.4L556 577.1L486 697.7Z" fill="#112e42" stroke="#112e42"></path><path d="M959 660.7L979 601.4L915 627.4Z" fill="#297ea6" stroke="#297ea6"></path><path d="M456 575.1L556 577.1L521 501.9Z" fill="#19435d" stroke="#19435d"></path><path d="M549 726.7L547 728.9L614 723.7Z" fill="#19435d" stroke="#19435d"></path><path d="M698 763.9L683 826.2L753 777.2Z" fill="#205a7a" stroke="#205a7a"></path><path d="M497 460.6L462 511.1L521 501.9Z" fill="#081a28" stroke="#081a28"></path><path d="M891 729.7L959 660.7L915 627.4Z" fill="#15384f" stroke="#15384f"></path><path d="M462 511.1L456 575.1L521 501.9Z" fill="#19435d" stroke="#19435d"></path><path d="M871 330.3L793 271.1L825 359.6Z" fill="#246688" stroke="#246688"></path><path d="M961 367.3L942 369.3L918 457.6Z" fill="#246688" stroke="#246688"></path><path d="M871 330.3L873 269.1L793 271.1Z" fill="#277297" stroke="#277297"></path><path d="M685 295.1L570 310.1L669 337.3Z" fill="#15384f" stroke="#15384f"></path><path d="M456 331.3L460 456.6L497 460.6Z" fill="#15384f" stroke="#15384f"></path><path d="M497 460.6L460 456.6L462 511.1Z" fill="#277297" stroke="#277297"></path><path d="M654 245.1L570 310.1L685 295.1Z" fill="#112e42" stroke="#112e42"></path><path d="M1059 752.9L973 654.7L959 660.7Z" fill="#112e42" stroke="#112e42"></path><path d="M959 660.7L973 654.7L979 601.4Z" fill="#297ea6" stroke="#297ea6"></path><path d="M456 575.1L462 617.4L556 577.1Z" fill="#0c2435" stroke="#0c2435"></path><path d="M456 331.3L497 460.6L585 349.3Z" fill="#205a7a" stroke="#205a7a"></path><path d="M462 511.1L361 568.1L456 575.1Z" fill="#0c2435" stroke="#0c2435"></path><path d="M973 654.7L999 589.4L979 601.4Z" fill="#297ea6" stroke="#297ea6"></path><path d="M979 601.4L999 589.4L975 544.1Z" fill="#0c2435" stroke="#0c2435"></path><path d="M1030 403.6L961 367.3L918 457.6Z" fill="#19435d" stroke="#19435d"></path><path d="M462 617.4L486 697.7L556 577.1Z" fill="#00101c" stroke="#00101c"></path><path d="M1030 403.6L918 457.6L1056 451.6Z" fill="#0c2435" stroke="#0c2435"></path><path d="M965 282.1L873 269.1L871 330.3Z" fill="#0c2435" stroke="#0c2435"></path><path d="M541 800.2L614 723.7L547 728.9Z" fill="#0c2435" stroke="#0c2435"></path><path d="M541 800.2L683 826.2L614 723.7Z" fill="#15384f" stroke="#15384f"></path><path d="M830 847.2L917 763.9L891 729.7Z" fill="#081a28" stroke="#081a28"></path><path d="M830 847.2L766 746.9L753 777.2Z" fill="#277297" stroke="#277297"></path><path d="M891 729.7L917 763.9L959 660.7Z" fill="#0c2435" stroke="#0c2435"></path><path d="M658 207.8L654 245.1L682 182.8Z" fill="#00101c" stroke="#00101c"></path><path d="M462 617.4L444 638.4L486 697.7Z" fill="#1d4e6b" stroke="#1d4e6b"></path><path d="M456 575.1L444 638.4L462 617.4Z" fill="#15384f" stroke="#15384f"></path><path d="M361 568.1L444 638.4L456 575.1Z" fill="#081a28" stroke="#081a28"></path><path d="M444 638.4L467 694.7L486 697.7Z" fill="#1d4e6b" stroke="#1d4e6b"></path><path d="M444 788.9L541 800.2L547 728.9Z" fill="#205a7a" stroke="#205a7a"></path><path d="M965 282.1L871 330.3L942 369.3Z" fill="#297ea6" stroke="#297ea6"></path><path d="M682 182.8L654 245.1L685 295.1Z" fill="#277297" stroke="#277297"></path><path d="M873 269.1L839 239.8L793 271.1Z" fill="#00101c" stroke="#00101c"></path><path d="M444 788.9L547 728.9L486 697.7Z" fill="#00101c" stroke="#00101c"></path><path d="M658 207.8L591 239.8L654 245.1Z" fill="#297ea6" stroke="#297ea6"></path><path d="M654 245.1L591 239.8L570 310.1Z" fill="#277297" stroke="#277297"></path><path d="M425 331.3L396 477.9L460 456.6Z" fill="#112e42" stroke="#112e42"></path><path d="M618 881.5L699 861.5L683 826.2Z" fill="#205a7a" stroke="#205a7a"></path><path d="M683 826.2L753 867.2L753 777.2Z" fill="#1d4e6b" stroke="#1d4e6b"></path><path d="M753 867.2L830 847.2L753 777.2Z" fill="#15384f" stroke="#15384f"></path><path d="M1057 471.9L918 457.6L975 544.1Z" fill="#297ea6" stroke="#297ea6"></path><path d="M961 367.3L965 282.1L942 369.3Z" fill="#00101c" stroke="#00101c"></path><path d="M922 187.5L852 164.8L839 239.8Z" fill="#081a28" stroke="#081a28"></path><path d="M699 861.5L753 867.2L683 826.2Z" fill="#19435d" stroke="#19435d"></path><path d="M456 331.3L585 349.3L570 310.1Z" fill="#0c2435" stroke="#0c2435"></path><path d="M460 456.6L396 477.9L462 511.1Z" fill="#112e42" stroke="#112e42"></path><path d="M682 182.8L685 295.1L793 271.1Z" fill="#1d4e6b" stroke="#1d4e6b"></path><path d="M455 324.1L456 331.3L570 310.1Z" fill="#0c2435" stroke="#0c2435"></path><path d="M1065 578.4L1057 471.9L975 544.1Z" fill="#0c2435" stroke="#0c2435"></path><path d="M1065 578.4L975 544.1L999 589.4Z" fill="#0c2435" stroke="#0c2435"></path><path d="M684 966.7L731 874.5L699 861.5Z" fill="#205a7a" stroke="#205a7a"></path><path d="M699 861.5L731 874.5L753 867.2Z" fill="#1d4e6b" stroke="#1d4e6b"></path><path d="M753 867.2L837 882.5L830 847.2Z" fill="#0c2435" stroke="#0c2435"></path><path d="M1057 471.9L1056 451.6L918 457.6Z" fill="#19435d" stroke="#19435d"></path><path d="M1105 656.4L999 589.4L973 654.7Z" fill="#297ea6" stroke="#297ea6"></path><path d="M1105 656.4L1065 578.4L999 589.4Z" fill="#15384f" stroke="#15384f"></path><path d="M1057 471.9L1095 515.9L1056 451.6Z" fill="#112e42" stroke="#112e42"></path><path d="M442 289.1L455 324.1L570 310.1Z" fill="#1d4e6b" stroke="#1d4e6b"></path><path d="M456 331.3L425 331.3L460 456.6Z" fill="#297ea6" stroke="#297ea6"></path><path d="M996 306.1L961 367.3L1030 403.6Z" fill="#00101c" stroke="#00101c"></path><path d="M996 306.1L965 282.1L961 367.3Z" fill="#112e42" stroke="#112e42"></path><path d="M1091 371.3L996 306.1L1030 403.6Z" fill="#112e42" stroke="#112e42"></path><path d="M752 166.5L793 271.1L839 239.8Z" fill="#297ea6" stroke="#297ea6"></path><path d="M752 166.5L682 182.8L793 271.1Z" fill="#081a28" stroke="#081a28"></path><path d="M658 207.8L537 167.5L591 239.8Z" fill="#205a7a" stroke="#205a7a"></path><path d="M442 289.1L425 331.3L455 324.1Z" fill="#1d4e6b" stroke="#1d4e6b"></path><path d="M541 800.2L618 881.5L683 826.2Z" fill="#277297" stroke="#277297"></path><path d="M442 289.1L570 310.1L474 191.8Z" fill="#00101c" stroke="#00101c"></path><path d="M455 324.1L425 331.3L456 331.3Z" fill="#0c2435" stroke="#0c2435"></path><path d="M837 882.5L753 867.2L807 924.7Z" fill="#19435d" stroke="#19435d"></path><path d="M856 905.5L837 882.5L807 924.7Z" fill="#246688" stroke="#246688"></path><path d="M928 866.2L991 816.2L917 763.9Z" fill="#0c2435" stroke="#0c2435"></path><path d="M917 763.9L1059 752.9L959 660.7Z" fill="#15384f" stroke="#15384f"></path><path d="M357 494.9L361 568.1L396 477.9Z" fill="#00101c" stroke="#00101c"></path><path d="M396 477.9L361 568.1L462 511.1Z" fill="#081a28" stroke="#081a28"></path><path d="M334 711.7L444 788.9L467 694.7Z" fill="#112e42" stroke="#112e42"></path><path d="M467 694.7L444 788.9L486 697.7Z" fill="#00101c" stroke="#00101c"></path><path d="M852 164.8L752 166.5L839 239.8Z" fill="#00101c" stroke="#00101c"></path><path d="M321 447.9L357 494.9L396 477.9Z" fill="#15384f" stroke="#15384f"></path><path d="M1065 578.4L1095 515.9L1057 471.9Z" fill="#15384f" stroke="#15384f"></path><path d="M1056 451.6L1091 371.3L1030 403.6Z" fill="#205a7a" stroke="#205a7a"></path><path d="M474 191.8L570 310.1L591 239.8Z" fill="#205a7a" stroke="#205a7a"></path><path d="M425 331.3L382 328.3L396 477.9Z" fill="#277297" stroke="#277297"></path><path d="M334 711.7L467 694.7L444 638.4Z" fill="#081a28" stroke="#081a28"></path><path d="M541 800.2L587 929.7L618 881.5Z" fill="#277297" stroke="#277297"></path><path d="M357 494.9L346 575.4L361 568.1Z" fill="#081a28" stroke="#081a28"></path><path d="M361 568.1L346 575.4L444 638.4Z" fill="#277297" stroke="#277297"></path><path d="M928 866.2L917 763.9L830 847.2Z" fill="#15384f" stroke="#15384f"></path><path d="M1065 578.4L1131 550.1L1095 515.9Z" fill="#081a28" stroke="#081a28"></path><path d="M837 882.5L928 866.2L830 847.2Z" fill="#246688" stroke="#246688"></path><path d="M922 187.5L839 239.8L873 269.1Z" fill="#15384f" stroke="#15384f"></path><path d="M922 187.5L873 269.1L965 282.1Z" fill="#205a7a" stroke="#205a7a"></path><path d="M807 924.7L753 867.2L731 874.5Z" fill="#00101c" stroke="#00101c"></path><path d="M837 882.5L856 905.5L928 866.2Z" fill="#205a7a" stroke="#205a7a"></path><path d="M752 166.5L660 145.5L682 182.8Z" fill="#1d4e6b" stroke="#1d4e6b"></path><path d="M682 182.8L660 145.5L658 207.8Z" fill="#246688" stroke="#246688"></path><path d="M734 94.5L660 145.5L752 166.5Z" fill="#00101c" stroke="#00101c"></path><path d="M684 966.7L807 924.7L731 874.5Z" fill="#0c2435" stroke="#0c2435"></path><path d="M991 816.2L1059 752.9L917 763.9Z" fill="#297ea6" stroke="#297ea6"></path><path d="M1059 752.9L1105 656.4L973 654.7Z" fill="#277297" stroke="#277297"></path><path d="M972 167.8L922 187.5L965 282.1Z" fill="#15384f" stroke="#15384f"></path><path d="M358 236.1L382 328.3L442 289.1Z" fill="#15384f" stroke="#15384f"></path><path d="M442 289.1L382 328.3L425 331.3Z" fill="#15384f" stroke="#15384f"></path><path d="M1165 407.6L1056 451.6L1095 515.9Z" fill="#246688" stroke="#246688"></path><path d="M1165 407.6L1091 371.3L1056 451.6Z" fill="#1d4e6b" stroke="#1d4e6b"></path><path d="M1080 226.1L972 167.8L965 282.1Z" fill="#1d4e6b" stroke="#1d4e6b"></path><path d="M1127 646.7L1131 550.1L1065 578.4Z" fill="#246688" stroke="#246688"></path><path d="M410 833.2L455 847.2L444 788.9Z" fill="#0c2435" stroke="#0c2435"></path><path d="M444 788.9L455 847.2L541 800.2Z" fill="#297ea6" stroke="#297ea6"></path><path d="M618 881.5L684 966.7L699 861.5Z" fill="#277297" stroke="#277297"></path><path d="M660 145.5L537 167.5L658 207.8Z" fill="#0c2435" stroke="#0c2435"></path><path d="M311 409.6L321 447.9L396 477.9Z" fill="#112e42" stroke="#112e42"></path><path d="M357 494.9L253 577.1L346 575.4Z" fill="#112e42" stroke="#112e42"></path><path d="M1141 709.7L1127 646.7L1105 656.4Z" fill="#277297" stroke="#277297"></path><path d="M1105 656.4L1127 646.7L1065 578.4Z" fill="#19435d" stroke="#19435d"></path><path d="M481 901.5L587 929.7L541 800.2Z" fill="#081a28" stroke="#081a28"></path><path d="M922 187.5L854 137.5L852 164.8Z" fill="#19435d" stroke="#19435d"></path><path d="M852 164.8L854 137.5L752 166.5Z" fill="#081a28" stroke="#081a28"></path><path d="M991 816.2L1052 798.9L1059 752.9Z" fill="#15384f" stroke="#15384f"></path><path d="M1059 752.9L1141 709.7L1105 656.4Z" fill="#246688" stroke="#246688"></path><path d="M1054 812.2L1052 798.9L991 816.2Z" fill="#15384f" stroke="#15384f"></path><path d="M1054 812.2L991 816.2L1034 917.5Z" fill="#246688" stroke="#246688"></path><path d="M562 96.3L525 160.5L537 167.5Z" fill="#112e42" stroke="#112e42"></path><path d="M537 167.5L474 191.8L591 239.8Z" fill="#277297" stroke="#277297"></path><path d="M525 160.5L474 191.8L537 167.5Z" fill="#081a28" stroke="#081a28"></path><path d="M822 980.7L900 923.7L856 905.5Z" fill="#297ea6" stroke="#297ea6"></path><path d="M856 905.5L900 923.7L928 866.2Z" fill="#277297" stroke="#277297"></path><path d="M822 980.7L856 905.5L807 924.7Z" fill="#205a7a" stroke="#205a7a"></path><path d="M320 701.9L334 711.7L346 575.4Z" fill="#205a7a" stroke="#205a7a"></path><path d="M346 575.4L334 711.7L444 638.4Z" fill="#00101c" stroke="#00101c"></path><path d="M960 930.5L991 816.2L928 866.2Z" fill="#297ea6" stroke="#297ea6"></path><path d="M1109 796.9L1141 709.7L1059 752.9Z" fill="#277297" stroke="#277297"></path><path d="M298 300.1L311 409.6L382 328.3Z" fill="#297ea6" stroke="#297ea6"></path><path d="M382 328.3L311 409.6L396 477.9Z" fill="#277297" stroke="#277297"></path><path d="M311 717.7L320 701.9L260 715.9Z" fill="#0c2435" stroke="#0c2435"></path><path d="M587 929.7L684 966.7L618 881.5Z" fill="#277297" stroke="#277297"></path><path d="M338 792.2L410 833.2L444 788.9Z" fill="#19435d" stroke="#19435d"></path><path d="M455 847.2L481 901.5L541 800.2Z" fill="#246688" stroke="#246688"></path><path d="M562 96.3L511 157.8L525 160.5Z" fill="#0c2435" stroke="#0c2435"></path><path d="M525 160.5L511 157.8L474 191.8Z" fill="#277297" stroke="#277297"></path><path d="M268 618.4L346 575.4L253 577.1Z" fill="#112e42" stroke="#112e42"></path><path d="M334 711.7L338 792.2L444 788.9Z" fill="#246688" stroke="#246688"></path><path d="M466 915.7L481 901.5L455 847.2Z" fill="#277297" stroke="#277297"></path><path d="M643 1024L692 986.7L684 966.7Z" fill="#112e42" stroke="#112e42"></path><path d="M854 137.5L734 94.5L752 166.5Z" fill="#112e42" stroke="#112e42"></path><path d="M660 145.5L562 96.3L537 167.5Z" fill="#246688" stroke="#246688"></path><path d="M249 347.3L296 429.6L311 409.6Z" fill="#246688" stroke="#246688"></path><path d="M311 409.6L296 429.6L321 447.9Z" fill="#00101c" stroke="#00101c"></path><path d="M1080 226.1L965 282.1L996 306.1Z" fill="#19435d" stroke="#19435d"></path><path d="M922 187.5L868 90.3L854 137.5Z" fill="#19435d" stroke="#19435d"></path><path d="M854 137.5L748 64.3L734 94.5Z" fill="#297ea6" stroke="#297ea6"></path><path d="M460 148.5L410 218.8L474 191.8Z" fill="#246688" stroke="#246688"></path><path d="M474 191.8L410 218.8L442 289.1Z" fill="#19435d" stroke="#19435d"></path><path d="M1109 796.9L1059 752.9L1052 798.9Z" fill="#19435d" stroke="#19435d"></path><path d="M1220 567.1L1184 521.1L1131 550.1Z" fill="#297ea6" stroke="#297ea6"></path><path d="M268 618.4L320 701.9L346 575.4Z" fill="#0c2435" stroke="#0c2435"></path><path d="M320 701.9L311 717.7L334 711.7Z" fill="#0c2435" stroke="#0c2435"></path><path d="M643 1024L684 966.7L587 929.7Z" fill="#112e42" stroke="#112e42"></path><path d="M684 966.7L692 986.7L807 924.7Z" fill="#0c2435" stroke="#0c2435"></path><path d="M1040 128.5L970 154.8L972 167.8Z" fill="#00101c" stroke="#00101c"></path><path d="M972 167.8L970 154.8L922 187.5Z" fill="#297ea6" stroke="#297ea6"></path><path d="M740 1024L822 980.7L807 924.7Z" fill="#277297" stroke="#277297"></path><path d="M900 923.7L960 930.5L928 866.2Z" fill="#0c2435" stroke="#0c2435"></path><path d="M1184 521.1L1165 407.6L1095 515.9Z" fill="#19435d" stroke="#19435d"></path><path d="M1119 244.8L1080 226.1L996 306.1Z" fill="#112e42" stroke="#112e42"></path><path d="M1184 521.1L1095 515.9L1131 550.1Z" fill="#19435d" stroke="#19435d"></path><path d="M1190 516.9L1184 521.1L1198 516.9Z" fill="#00101c" stroke="#00101c"></path><path d="M909 1024L960 930.5L900 923.7Z" fill="#297ea6" stroke="#297ea6"></path><path d="M1054 812.2L1109 796.9L1052 798.9Z" fill="#00101c" stroke="#00101c"></path><path d="M398 912.7L466 915.7L455 847.2Z" fill="#205a7a" stroke="#205a7a"></path><path d="M481 901.5L466 915.7L587 929.7Z" fill="#1d4e6b" stroke="#1d4e6b"></path><path d="M398 912.7L455 847.2L410 833.2Z" fill="#0c2435" stroke="#0c2435"></path><path d="M311 717.7L338 792.2L334 711.7Z" fill="#112e42" stroke="#112e42"></path><path d="M253 577.1L357 494.9L321 447.9Z" fill="#19435d" stroke="#19435d"></path><path d="M311 717.7L257 785.2L338 792.2Z" fill="#297ea6" stroke="#297ea6"></path><path d="M1106 820.2L1109 796.9L1054 812.2Z" fill="#297ea6" stroke="#297ea6"></path><path d="M1198 516.9L1184 521.1L1220 567.1Z" fill="#00101c" stroke="#00101c"></path><path d="M1184 521.1L1190 516.9L1165 407.6Z" fill="#1d4e6b" stroke="#1d4e6b"></path><path d="M970 154.8L868 90.3L922 187.5Z" fill="#277297" stroke="#277297"></path><path d="M597 59.3L562 96.3L660 145.5Z" fill="#19435d" stroke="#19435d"></path><path d="M511 157.8L460 148.5L474 191.8Z" fill="#297ea6" stroke="#297ea6"></path><path d="M597 59.3L660 145.5L734 94.5Z" fill="#297ea6" stroke="#297ea6"></path><path d="M534 59.3L460 148.5L511 157.8Z" fill="#112e42" stroke="#112e42"></path><path d="M1119 244.8L996 306.1L1091 371.3Z" fill="#0c2435" stroke="#0c2435"></path><path d="M338 792.2L374 849.5L410 833.2Z" fill="#00101c" stroke="#00101c"></path><path d="M868 90.3L748 64.3L854 137.5Z" fill="#19435d" stroke="#19435d"></path><path d="M1220 567.1L1131 550.1L1127 646.7Z" fill="#205a7a" stroke="#205a7a"></path><path d="M1190 516.9L1198 516.9L1165 407.6Z" fill="#081a28" stroke="#081a28"></path><path d="M334 144.5L358 236.1L410 218.8Z" fill="#112e42" stroke="#112e42"></path><path d="M410 218.8L358 236.1L442 289.1Z" fill="#297ea6" stroke="#297ea6"></path><path d="M296 429.6L253 577.1L321 447.9Z" fill="#277297" stroke="#277297"></path><path d="M1113 849.5L1106 820.2L1054 812.2Z" fill="#19435d" stroke="#19435d"></path><path d="M1109 796.9L1175 755.9L1141 709.7Z" fill="#00101c" stroke="#00101c"></path><path d="M358 236.1L298 300.1L382 328.3Z" fill="#19435d" stroke="#19435d"></path><path d="M296 429.6L179 466.9L253 577.1Z" fill="#246688" stroke="#246688"></path><path d="M643 1024L740 1024L692 986.7Z" fill="#246688" stroke="#246688"></path><path d="M692 986.7L740 1024L807 924.7Z" fill="#297ea6" stroke="#297ea6"></path><path d="M1022 977.7L1034 917.5L960 930.5Z" fill="#277297" stroke="#277297"></path><path d="M1176 271.1L1119 244.8L1091 371.3Z" fill="#112e42" stroke="#112e42"></path><path d="M1080 226.1L1055 162.5L972 167.8Z" fill="#19435d" stroke="#19435d"></path><path d="M970 154.8L939 48.3L868 90.3Z" fill="#297ea6" stroke="#297ea6"></path><path d="M1198 379.3L1091 371.3L1165 407.6Z" fill="#15384f" stroke="#15384f"></path><path d="M906 1024L900 923.7L822 980.7Z" fill="#1d4e6b" stroke="#1d4e6b"></path><path d="M960 930.5L1034 917.5L991 816.2Z" fill="#15384f" stroke="#15384f"></path><path d="M731 21.3L597 59.3L734 94.5Z" fill="#15384f" stroke="#15384f"></path><path d="M562 96.3L534 59.3L511 157.8Z" fill="#297ea6" stroke="#297ea6"></path><path d="M740 1024L801 1024L822 980.7Z" fill="#277297" stroke="#277297"></path><path d="M607 1024L643 1024L587 929.7Z" fill="#0c2435" stroke="#0c2435"></path><path d="M1268 649.4L1220 567.1L1127 646.7Z" fill="#112e42" stroke="#112e42"></path><path d="M1261 440.6L1198 379.3L1165 407.6Z" fill="#112e42" stroke="#112e42"></path><path d="M1205 707.7L1127 646.7L1141 709.7Z" fill="#0c2435" stroke="#0c2435"></path><path d="M374 849.5L380 892.5L410 833.2Z" fill="#1d4e6b" stroke="#1d4e6b"></path><path d="M453 1024L607 1024L587 929.7Z" fill="#19435d" stroke="#19435d"></path><path d="M328 852.2L380 892.5L374 849.5Z" fill="#246688" stroke="#246688"></path><path d="M1091 163.8L1055 162.5L1080 226.1Z" fill="#205a7a" stroke="#205a7a"></path><path d="M1261 440.6L1165 407.6L1198 516.9Z" fill="#112e42" stroke="#112e42"></path><path d="M268 618.4L260 715.9L320 701.9Z" fill="#1d4e6b" stroke="#1d4e6b"></path><path d="M338 792.2L328 852.2L374 849.5Z" fill="#246688" stroke="#246688"></path><path d="M206 647.4L260 715.9L268 618.4Z" fill="#277297" stroke="#277297"></path><path d="M1034 917.5L1113 849.5L1054 812.2Z" fill="#00101c" stroke="#00101c"></path><path d="M1106 820.2L1175 755.9L1109 796.9Z" fill="#246688" stroke="#246688"></path><path d="M380 892.5L398 912.7L410 833.2Z" fill="#19435d" stroke="#19435d"></path><path d="M1113 849.5L1175 755.9L1106 820.2Z" fill="#19435d" stroke="#19435d"></path><path d="M453 1024L587 929.7L466 915.7Z" fill="#112e42" stroke="#112e42"></path><path d="M380 892.5L337 949.7L398 912.7Z" fill="#081a28" stroke="#081a28"></path><path d="M257 785.2L328 852.2L338 792.2Z" fill="#081a28" stroke="#081a28"></path><path d="M1175 755.9L1205 707.7L1141 709.7Z" fill="#297ea6" stroke="#297ea6"></path><path d="M243 332.3L249 347.3L298 300.1Z" fill="#081a28" stroke="#081a28"></path><path d="M298 300.1L249 347.3L311 409.6Z" fill="#00101c" stroke="#00101c"></path><path d="M597 59.3L534 59.3L562 96.3Z" fill="#205a7a" stroke="#205a7a"></path><path d="M460 148.5L334 144.5L410 218.8Z" fill="#246688" stroke="#246688"></path><path d="M828 0L731 21.3L748 64.3Z" fill="#205a7a" stroke="#205a7a"></path><path d="M748 64.3L731 21.3L734 94.5Z" fill="#15384f" stroke="#15384f"></path><path d="M597 59.3L564 0L534 59.3Z" fill="#205a7a" stroke="#205a7a"></path><path d="M727 0L731 21.3L828 0Z" fill="#19435d" stroke="#19435d"></path><path d="M1091 163.8L1040 128.5L1055 162.5Z" fill="#15384f" stroke="#15384f"></path><path d="M1055 162.5L1040 128.5L972 167.8Z" fill="#0c2435" stroke="#0c2435"></path><path d="M249 347.3L224 416.6L296 429.6Z" fill="#15384f" stroke="#15384f"></path><path d="M219 737.9L257 785.2L260 715.9Z" fill="#277297" stroke="#277297"></path><path d="M801 1024L906 1024L822 980.7Z" fill="#297ea6" stroke="#297ea6"></path><path d="M1040 128.5L990 86.3L970 154.8Z" fill="#277297" stroke="#277297"></path><path d="M1181 172.5L1091 163.8L1119 244.8Z" fill="#246688" stroke="#246688"></path><path d="M1119 244.8L1091 163.8L1080 226.1Z" fill="#0c2435" stroke="#0c2435"></path><path d="M1040 128.5L1078 66.3L990 86.3Z" fill="#00101c" stroke="#00101c"></path><path d="M906 1024L909 1024L900 923.7Z" fill="#19435d" stroke="#19435d"></path><path d="M1198 379.3L1176 271.1L1091 371.3Z" fill="#112e42" stroke="#112e42"></path><path d="M175 296.3L243 332.3L196 225.1Z" fill="#0c2435" stroke="#0c2435"></path><path d="M249 347.3L159 367.6L224 416.6Z" fill="#1d4e6b" stroke="#1d4e6b"></path><path d="M282 176.5L298 300.1L358 236.1Z" fill="#205a7a" stroke="#205a7a"></path><path d="M206 647.4L268 618.4L253 577.1Z" fill="#1d4e6b" stroke="#1d4e6b"></path><path d="M260 715.9L257 785.2L311 717.7Z" fill="#15384f" stroke="#15384f"></path><path d="M174 569.1L206 647.4L253 577.1Z" fill="#205a7a" stroke="#205a7a"></path><path d="M990 86.3L939 48.3L970 154.8Z" fill="#277297" stroke="#277297"></path><path d="M909 1024L1022 977.7L960 930.5Z" fill="#277297" stroke="#277297"></path><path d="M1034 917.5L1131 928.7L1113 849.5Z" fill="#00101c" stroke="#00101c"></path><path d="M1268 649.4L1257 592.1L1220 567.1Z" fill="#205a7a" stroke="#205a7a"></path><path d="M1286 508.9L1261 440.6L1198 516.9Z" fill="#297ea6" stroke="#297ea6"></path><path d="M1229 290.1L1194 233.8L1176 271.1Z" fill="#0c2435" stroke="#0c2435"></path><path d="M828 0L748 64.3L868 90.3Z" fill="#081a28" stroke="#081a28"></path><path d="M731 21.3L603 0L597 59.3Z" fill="#19435d" stroke="#19435d"></path><path d="M1286 508.9L1198 516.9L1220 567.1Z" fill="#297ea6" stroke="#297ea6"></path><path d="M206 647.4L219 737.9L260 715.9Z" fill="#0c2435" stroke="#0c2435"></path><path d="M901 0L828 0L868 90.3Z" fill="#112e42" stroke="#112e42"></path><path d="M727 0L603 0L731 21.3Z" fill="#15384f" stroke="#15384f"></path><path d="M159 367.6L179 466.9L224 416.6Z" fill="#15384f" stroke="#15384f"></path><path d="M224 416.6L179 466.9L296 429.6Z" fill="#081a28" stroke="#081a28"></path><path d="M206 647.4L174 662.7L219 737.9Z" fill="#277297" stroke="#277297"></path><path d="M1175 755.9L1245 715.9L1205 707.7Z" fill="#0c2435" stroke="#0c2435"></path><path d="M1205 707.7L1268 649.4L1127 646.7Z" fill="#00101c" stroke="#00101c"></path><path d="M1275 801.2L1245 715.9L1175 755.9Z" fill="#19435d" stroke="#19435d"></path><path d="M1199 894.5L1175 755.9L1113 849.5Z" fill="#00101c" stroke="#00101c"></path><path d="M462 0L442 63.3L534 59.3Z" fill="#0c2435" stroke="#0c2435"></path><path d="M534 59.3L442 63.3L460 148.5Z" fill="#19435d" stroke="#19435d"></path><path d="M179 466.9L174 569.1L253 577.1Z" fill="#297ea6" stroke="#297ea6"></path><path d="M442 63.3L334 144.5L460 148.5Z" fill="#00101c" stroke="#00101c"></path><path d="M1245 715.9L1268 649.4L1205 707.7Z" fill="#297ea6" stroke="#297ea6"></path><path d="M1257 592.1L1286 508.9L1220 567.1Z" fill="#112e42" stroke="#112e42"></path><path d="M1229 290.1L1176 271.1L1198 379.3Z" fill="#246688" stroke="#246688"></path><path d="M1176 271.1L1194 233.8L1119 244.8Z" fill="#00101c" stroke="#00101c"></path><path d="M911 0L939 48.3L1016 0Z" fill="#112e42" stroke="#112e42"></path><path d="M911 0L901 0L939 48.3Z" fill="#0c2435" stroke="#0c2435"></path><path d="M427 1024L453 1024L466 915.7Z" fill="#205a7a" stroke="#205a7a"></path><path d="M427 1024L466 915.7L398 912.7Z" fill="#081a28" stroke="#081a28"></path><path d="M337 949.7L380 892.5L328 852.2Z" fill="#205a7a" stroke="#205a7a"></path><path d="M603 0L564 0L597 59.3Z" fill="#00101c" stroke="#00101c"></path><path d="M1274 363.3L1229 290.1L1198 379.3Z" fill="#297ea6" stroke="#297ea6"></path><path d="M1296 594.4L1286 508.9L1257 592.1Z" fill="#205a7a" stroke="#205a7a"></path><path d="M1261 440.6L1274 363.3L1198 379.3Z" fill="#205a7a" stroke="#205a7a"></path><path d="M939 48.3L901 0L868 90.3Z" fill="#1d4e6b" stroke="#1d4e6b"></path><path d="M939 48.3L990 86.3L1016 0Z" fill="#112e42" stroke="#112e42"></path><path d="M1122 984.7L1131 928.7L1034 917.5Z" fill="#297ea6" stroke="#297ea6"></path><path d="M174 569.1L174 662.7L206 647.4Z" fill="#205a7a" stroke="#205a7a"></path><path d="M1131 113.3L1040 128.5L1091 163.8Z" fill="#297ea6" stroke="#297ea6"></path><path d="M258 927.5L328 852.2L257 785.2Z" fill="#1d4e6b" stroke="#1d4e6b"></path><path d="M258 927.5L337 949.7L328 852.2Z" fill="#277297" stroke="#277297"></path><path d="M258 927.5L257 785.2L181 842.5Z" fill="#0c2435" stroke="#0c2435"></path><path d="M274 156.8L282 176.5L334 144.5Z" fill="#205a7a" stroke="#205a7a"></path><path d="M334 144.5L282 176.5L358 236.1Z" fill="#15384f" stroke="#15384f"></path><path d="M243 332.3L159 367.6L249 347.3Z" fill="#081a28" stroke="#081a28"></path><path d="M337 949.7L427 1024L398 912.7Z" fill="#277297" stroke="#277297"></path><path d="M1268 649.4L1296 594.4L1257 592.1Z" fill="#112e42" stroke="#112e42"></path><path d="M1306 671.7L1296 594.4L1268 649.4Z" fill="#297ea6" stroke="#297ea6"></path><path d="M1274 363.3L1261 440.6L1309 406.6Z" fill="#112e42" stroke="#112e42"></path><path d="M1285 358.3L1274 363.3L1309 406.6Z" fill="#205a7a" stroke="#205a7a"></path><path d="M1265 239.8L1181 172.5L1194 233.8Z" fill="#15384f" stroke="#15384f"></path><path d="M1194 233.8L1181 172.5L1119 244.8Z" fill="#0c2435" stroke="#0c2435"></path><path d="M1265 239.8L1194 233.8L1229 290.1Z" fill="#205a7a" stroke="#205a7a"></path><path d="M1181 172.5L1131 113.3L1091 163.8Z" fill="#0c2435" stroke="#0c2435"></path><path d="M909 1024L1050 1024L1022 977.7Z" fill="#1d4e6b" stroke="#1d4e6b"></path><path d="M1022 977.7L1122 984.7L1034 917.5Z" fill="#15384f" stroke="#15384f"></path><path d="M1131 113.3L1078 66.3L1040 128.5Z" fill="#1d4e6b" stroke="#1d4e6b"></path><path d="M1309 406.6L1261 440.6L1352 446.6Z" fill="#1d4e6b" stroke="#1d4e6b"></path><path d="M1274 363.3L1270 291.1L1229 290.1Z" fill="#081a28" stroke="#081a28"></path><path d="M301 62.3L274 156.8L334 144.5Z" fill="#0c2435" stroke="#0c2435"></path><path d="M175 296.3L159 367.6L243 332.3Z" fill="#00101c" stroke="#00101c"></path><path d="M1050 1024L1056 1024L1022 977.7Z" fill="#19435d" stroke="#19435d"></path><path d="M243 332.3L298 300.1L196 225.1Z" fill="#081a28" stroke="#081a28"></path><path d="M71 511.1L106 579.1L174 569.1Z" fill="#1d4e6b" stroke="#1d4e6b"></path><path d="M174 569.1L102 631.4L174 662.7Z" fill="#0c2435" stroke="#0c2435"></path><path d="M1190 918.5L1199 894.5L1131 928.7Z" fill="#1d4e6b" stroke="#1d4e6b"></path><path d="M1131 928.7L1199 894.5L1113 849.5Z" fill="#1d4e6b" stroke="#1d4e6b"></path><path d="M1245 715.9L1306 671.7L1268 649.4Z" fill="#277297" stroke="#277297"></path><path d="M564 0L462 0L534 59.3Z" fill="#1d4e6b" stroke="#1d4e6b"></path><path d="M442 63.3L394 24.3L334 144.5Z" fill="#277297" stroke="#277297"></path><path d="M1330 784.9L1306 671.7L1245 715.9Z" fill="#0c2435" stroke="#0c2435"></path><path d="M1352 446.6L1261 440.6L1286 508.9Z" fill="#19435d" stroke="#19435d"></path><path d="M1285 358.3L1270 291.1L1274 363.3Z" fill="#1d4e6b" stroke="#1d4e6b"></path><path d="M1352 446.6L1286 508.9L1359 562.1Z" fill="#1d4e6b" stroke="#1d4e6b"></path><path d="M1285 358.3L1372 319.3L1270 291.1Z" fill="#205a7a" stroke="#205a7a"></path><path d="M462 0L456 0L442 63.3Z" fill="#297ea6" stroke="#297ea6"></path><path d="M1056 1024L1122 984.7L1022 977.7Z" fill="#15384f" stroke="#15384f"></path><path d="M196 225.1L298 300.1L282 176.5Z" fill="#205a7a" stroke="#205a7a"></path><path d="M1181 172.5L1147 106.5L1131 113.3Z" fill="#15384f" stroke="#15384f"></path><path d="M1131 113.3L1147 106.5L1078 66.3Z" fill="#205a7a" stroke="#205a7a"></path><path d="M1153 0L1147 106.5L1198 32.3Z" fill="#00101c" stroke="#00101c"></path><path d="M1122 984.7L1190 918.5L1131 928.7Z" fill="#277297" stroke="#277297"></path><path d="M1199 894.5L1275 801.2L1175 755.9Z" fill="#15384f" stroke="#15384f"></path><path d="M456 0L394 24.3L442 63.3Z" fill="#081a28" stroke="#081a28"></path><path d="M1101 0L1016 0L1078 66.3Z" fill="#081a28" stroke="#081a28"></path><path d="M1078 66.3L1016 0L990 86.3Z" fill="#297ea6" stroke="#297ea6"></path><path d="M181 842.5L257 785.2L219 737.9Z" fill="#205a7a" stroke="#205a7a"></path><path d="M337 949.7L340 1024L427 1024Z" fill="#1d4e6b" stroke="#1d4e6b"></path><path d="M101 388.3L122 443.9L159 367.6Z" fill="#297ea6" stroke="#297ea6"></path><path d="M159 367.6L122 443.9L179 466.9Z" fill="#15384f" stroke="#15384f"></path><path d="M1300 816.2L1275 801.2L1275 904.5Z" fill="#19435d" stroke="#19435d"></path><path d="M217 147.5L196 225.1L282 176.5Z" fill="#15384f" stroke="#15384f"></path><path d="M175 296.3L101 388.3L159 367.6Z" fill="#112e42" stroke="#112e42"></path><path d="M217 147.5L282 176.5L274 156.8Z" fill="#112e42" stroke="#112e42"></path><path d="M1270 291.1L1265 239.8L1229 290.1Z" fill="#246688" stroke="#246688"></path><path d="M1372 319.3L1265 239.8L1270 291.1Z" fill="#19435d" stroke="#19435d"></path><path d="M71 511.1L174 569.1L179 466.9Z" fill="#277297" stroke="#277297"></path><path d="M142 820.2L181 842.5L219 737.9Z" fill="#081a28" stroke="#081a28"></path><path d="M282 1024L340 1024L337 949.7Z" fill="#1d4e6b" stroke="#1d4e6b"></path><path d="M131 731.7L219 737.9L174 662.7Z" fill="#0c2435" stroke="#0c2435"></path><path d="M258 927.5L250 952.7L337 949.7Z" fill="#277297" stroke="#277297"></path><path d="M105 661.7L131 731.7L174 662.7Z" fill="#205a7a" stroke="#205a7a"></path><path d="M106 579.1L102 631.4L174 569.1Z" fill="#246688" stroke="#246688"></path><path d="M217 967.7L250 952.7L258 927.5Z" fill="#112e42" stroke="#112e42"></path><path d="M102 631.4L105 661.7L174 662.7Z" fill="#246688" stroke="#246688"></path><path d="M1359 562.1L1286 508.9L1296 594.4Z" fill="#205a7a" stroke="#205a7a"></path><path d="M1309 406.6L1372 319.3L1285 358.3Z" fill="#19435d" stroke="#19435d"></path><path d="M1370 646.7L1296 594.4L1306 671.7Z" fill="#1d4e6b" stroke="#1d4e6b"></path><path d="M1370 646.7L1357 591.4L1296 594.4Z" fill="#0c2435" stroke="#0c2435"></path><path d="M1357 591.4L1359 562.1L1296 594.4Z" fill="#15384f" stroke="#15384f"></path><path d="M1190 918.5L1229 921.7L1199 894.5Z" fill="#15384f" stroke="#15384f"></path><path d="M1275 801.2L1330 784.9L1245 715.9Z" fill="#00101c" stroke="#00101c"></path><path d="M1236 1024L1229 921.7L1190 918.5Z" fill="#297ea6" stroke="#297ea6"></path><path d="M1165 1024L1190 918.5L1122 984.7Z" fill="#112e42" stroke="#112e42"></path><path d="M394 24.3L301 62.3L334 144.5Z" fill="#1d4e6b" stroke="#1d4e6b"></path><path d="M301 62.3L217 147.5L274 156.8Z" fill="#081a28" stroke="#081a28"></path><path d="M57 391.6L101 388.3L20 285.1Z" fill="#246688" stroke="#246688"></path><path d="M1275 904.5L1275 801.2L1199 894.5Z" fill="#081a28" stroke="#081a28"></path><path d="M112 231.1L175 296.3L196 225.1Z" fill="#081a28" stroke="#081a28"></path><path d="M122 443.9L71 511.1L179 466.9Z" fill="#19435d" stroke="#19435d"></path><path d="M106 579.1L75 618.4L102 631.4Z" fill="#277297" stroke="#277297"></path><path d="M131 731.7L142 820.2L219 737.9Z" fill="#112e42" stroke="#112e42"></path><path d="M181 842.5L217 967.7L258 927.5Z" fill="#297ea6" stroke="#297ea6"></path><path d="M105 800.9L142 820.2L131 731.7Z" fill="#277297" stroke="#277297"></path><path d="M1153 0L1101 0L1078 66.3Z" fill="#112e42" stroke="#112e42"></path><path d="M1153 0L1078 66.3L1147 106.5Z" fill="#0c2435" stroke="#0c2435"></path><path d="M1356 799.2L1330 784.9L1300 816.2Z" fill="#0c2435" stroke="#0c2435"></path><path d="M1300 816.2L1330 784.9L1275 801.2Z" fill="#205a7a" stroke="#205a7a"></path><path d="M63 464.9L71 511.1L122 443.9Z" fill="#1d4e6b" stroke="#1d4e6b"></path><path d="M102 631.4L75 618.4L105 661.7Z" fill="#0c2435" stroke="#0c2435"></path><path d="M1330 784.9L1370 646.7L1306 671.7Z" fill="#205a7a" stroke="#205a7a"></path><path d="M1440 526.1L1412 508.9L1359 562.1Z" fill="#205a7a" stroke="#205a7a"></path><path d="M1440 407.6L1372 319.3L1352 446.6Z" fill="#0c2435" stroke="#0c2435"></path><path d="M71 511.1L75 618.4L106 579.1Z" fill="#19435d" stroke="#19435d"></path><path d="M105 661.7L86 705.9L131 731.7Z" fill="#0c2435" stroke="#0c2435"></path><path d="M1056 1024L1165 1024L1122 984.7Z" fill="#081a28" stroke="#081a28"></path><path d="M1229 921.7L1275 904.5L1199 894.5Z" fill="#205a7a" stroke="#205a7a"></path><path d="M217 967.7L282 1024L250 952.7Z" fill="#205a7a" stroke="#205a7a"></path><path d="M250 952.7L282 1024L337 949.7Z" fill="#1d4e6b" stroke="#1d4e6b"></path><path d="M75 618.4L86 705.9L105 661.7Z" fill="#277297" stroke="#277297"></path><path d="M1287 938.7L1275 904.5L1229 921.7Z" fill="#277297" stroke="#277297"></path><path d="M101 388.3L63 464.9L122 443.9Z" fill="#15384f" stroke="#15384f"></path><path d="M71 511.1L0 516.1L75 618.4Z" fill="#297ea6" stroke="#297ea6"></path><path d="M57 391.6L63 464.9L101 388.3Z" fill="#112e42" stroke="#112e42"></path><path d="M128 129.5L172 163.8L169 62.3Z" fill="#277297" stroke="#277297"></path><path d="M217 147.5L172 163.8L196 225.1Z" fill="#112e42" stroke="#112e42"></path><path d="M117 951.7L217 967.7L181 842.5Z" fill="#277297" stroke="#277297"></path><path d="M394 24.3L324 0L301 62.3Z" fill="#081a28" stroke="#081a28"></path><path d="M169 62.3L172 163.8L217 147.5Z" fill="#205a7a" stroke="#205a7a"></path><path d="M456 0L324 0L394 24.3Z" fill="#205a7a" stroke="#205a7a"></path><path d="M324 0L322 0L301 62.3Z" fill="#0c2435" stroke="#0c2435"></path><path d="M86 705.9L105 800.9L131 731.7Z" fill="#1d4e6b" stroke="#1d4e6b"></path><path d="M142 820.2L100 912.5L181 842.5Z" fill="#246688" stroke="#246688"></path><path d="M1412 508.9L1352 446.6L1359 562.1Z" fill="#205a7a" stroke="#205a7a"></path><path d="M1352 446.6L1372 319.3L1309 406.6Z" fill="#1d4e6b" stroke="#1d4e6b"></path><path d="M1198 32.3L1147 106.5L1281 57.3Z" fill="#246688" stroke="#246688"></path><path d="M112 231.1L101 388.3L175 296.3Z" fill="#1d4e6b" stroke="#1d4e6b"></path><path d="M0 485.9L0 516.1L71 511.1Z" fill="#00101c" stroke="#00101c"></path><path d="M1330 784.9L1440 763.9L1370 646.7Z" fill="#297ea6" stroke="#297ea6"></path><path d="M1334 903.7L1356 799.2L1300 816.2Z" fill="#277297" stroke="#277297"></path><path d="M172 163.8L112 231.1L196 225.1Z" fill="#112e42" stroke="#112e42"></path><path d="M1147 106.5L1181 172.5L1281 57.3Z" fill="#0c2435" stroke="#0c2435"></path><path d="M1359 562.1L1357 591.4L1440 595.4Z" fill="#112e42" stroke="#112e42"></path><path d="M1440 526.1L1359 562.1L1440 595.4Z" fill="#205a7a" stroke="#205a7a"></path><path d="M1345 161.5L1181 172.5L1265 239.8Z" fill="#15384f" stroke="#15384f"></path><path d="M1236 1024L1287 938.7L1229 921.7Z" fill="#205a7a" stroke="#205a7a"></path><path d="M1275 904.5L1334 903.7L1300 816.2Z" fill="#277297" stroke="#277297"></path><path d="M1198 32.3L1186 0L1153 0Z" fill="#297ea6" stroke="#297ea6"></path><path d="M1292 0L1186 0L1198 32.3Z" fill="#00101c" stroke="#00101c"></path><path d="M1165 1024L1236 1024L1190 918.5Z" fill="#277297" stroke="#277297"></path><path d="M117 951.7L212 1024L217 967.7Z" fill="#19435d" stroke="#19435d"></path><path d="M217 967.7L212 1024L282 1024Z" fill="#112e42" stroke="#112e42"></path><path d="M128 129.5L101 194.8L172 163.8Z" fill="#205a7a" stroke="#205a7a"></path><path d="M172 163.8L101 194.8L112 231.1Z" fill="#1d4e6b" stroke="#1d4e6b"></path><path d="M0 298.3L0 414.6L57 391.6Z" fill="#112e42" stroke="#112e42"></path><path d="M1385 894.5L1334 903.7L1322 1024Z" fill="#0c2435" stroke="#0c2435"></path><path d="M1287 938.7L1334 903.7L1275 904.5Z" fill="#19435d" stroke="#19435d"></path><path d="M1440 595.4L1357 591.4L1370 646.7Z" fill="#19435d" stroke="#19435d"></path><path d="M1412 508.9L1440 427.9L1352 446.6Z" fill="#277297" stroke="#277297"></path><path d="M1440 595.4L1370 646.7L1440 652.7Z" fill="#15384f" stroke="#15384f"></path><path d="M1440 652.7L1370 646.7L1440 763.9Z" fill="#19435d" stroke="#19435d"></path><path d="M201 29.3L217 147.5L301 62.3Z" fill="#112e42" stroke="#112e42"></path><path d="M1440 526.1L1440 427.9L1412 508.9Z" fill="#00101c" stroke="#00101c"></path><path d="M1386 173.8L1345 161.5L1265 239.8Z" fill="#297ea6" stroke="#297ea6"></path><path d="M1386 173.8L1265 239.8L1372 319.3Z" fill="#0c2435" stroke="#0c2435"></path><path d="M1440 763.9L1330 784.9L1356 799.2Z" fill="#0c2435" stroke="#0c2435"></path><path d="M0 485.9L63 464.9L0 414.6Z" fill="#0c2435" stroke="#0c2435"></path><path d="M0 485.9L71 511.1L63 464.9Z" fill="#081a28" stroke="#081a28"></path><path d="M75 618.4L0 710.7L86 705.9Z" fill="#277297" stroke="#277297"></path><path d="M46 810.2L77 872.5L105 800.9Z" fill="#246688" stroke="#246688"></path><path d="M1440 427.9L1440 407.6L1352 446.6Z" fill="#15384f" stroke="#15384f"></path><path d="M0 414.6L63 464.9L57 391.6Z" fill="#297ea6" stroke="#297ea6"></path><path d="M322 0L201 29.3L301 62.3Z" fill="#1d4e6b" stroke="#1d4e6b"></path><path d="M0 516.1L0 619.4L75 618.4Z" fill="#205a7a" stroke="#205a7a"></path><path d="M77 872.5L100 912.5L142 820.2Z" fill="#0c2435" stroke="#0c2435"></path><path d="M77 872.5L142 820.2L105 800.9Z" fill="#205a7a" stroke="#205a7a"></path><path d="M201 29.3L169 62.3L217 147.5Z" fill="#297ea6" stroke="#297ea6"></path><path d="M46 810.2L105 800.9L86 705.9Z" fill="#277297" stroke="#277297"></path><path d="M0 748.9L46 810.2L86 705.9Z" fill="#1d4e6b" stroke="#1d4e6b"></path><path d="M1345 161.5L1281 57.3L1181 172.5Z" fill="#0c2435" stroke="#0c2435"></path><path d="M1440 290.3L1415 286.1L1372 319.3Z" fill="#081a28" stroke="#081a28"></path><path d="M54 233.8L112 231.1L101 194.8Z" fill="#297ea6" stroke="#297ea6"></path><path d="M20 285.1L101 388.3L112 231.1Z" fill="#1d4e6b" stroke="#1d4e6b"></path><path d="M20 285.1L54 233.8L0 245.8Z" fill="#112e42" stroke="#112e42"></path><path d="M0 245.8L54 233.8L0 234.1Z" fill="#205a7a" stroke="#205a7a"></path><path d="M98 1024L117 951.7L93 1024Z" fill="#112e42" stroke="#112e42"></path><path d="M100 912.5L117 951.7L181 842.5Z" fill="#277297" stroke="#277297"></path><path d="M1386 173.8L1360 144.5L1345 161.5Z" fill="#277297" stroke="#277297"></path><path d="M1345 161.5L1360 144.5L1281 57.3Z" fill="#19435d" stroke="#19435d"></path><path d="M0 619.4L0 710.7L75 618.4Z" fill="#15384f" stroke="#15384f"></path><path d="M54 233.8L20 285.1L112 231.1Z" fill="#0c2435" stroke="#0c2435"></path><path d="M1440 829.2L1440 763.9L1356 799.2Z" fill="#205a7a" stroke="#205a7a"></path><path d="M1322 1024L1334 903.7L1287 938.7Z" fill="#1d4e6b" stroke="#1d4e6b"></path><path d="M1334 903.7L1385 894.5L1356 799.2Z" fill="#297ea6" stroke="#297ea6"></path><path d="M1415 286.1L1386 173.8L1372 319.3Z" fill="#112e42" stroke="#112e42"></path><path d="M1236 1024L1299 1024L1287 938.7Z" fill="#15384f" stroke="#15384f"></path><path d="M0 917.5L46 951.7L77 872.5Z" fill="#081a28" stroke="#081a28"></path><path d="M46 951.7L117 951.7L100 912.5Z" fill="#246688" stroke="#246688"></path><path d="M0 710.7L0 748.9L86 705.9Z" fill="#1d4e6b" stroke="#1d4e6b"></path><path d="M1440 407.6L1440 290.3L1372 319.3Z" fill="#112e42" stroke="#112e42"></path><path d="M1415 286.1L1440 272.1L1386 173.8Z" fill="#0c2435" stroke="#0c2435"></path><path d="M1440 290.3L1440 272.1L1415 286.1Z" fill="#1d4e6b" stroke="#1d4e6b"></path><path d="M54 233.8L0 127.5L0 234.1Z" fill="#297ea6" stroke="#297ea6"></path><path d="M0 245.8L0 298.3L20 285.1Z" fill="#1d4e6b" stroke="#1d4e6b"></path><path d="M20 285.1L0 298.3L57 391.6Z" fill="#112e42" stroke="#112e42"></path><path d="M0 748.9L0 781.2L46 810.2Z" fill="#081a28" stroke="#081a28"></path><path d="M1299 1024L1322 1024L1287 938.7Z" fill="#246688" stroke="#246688"></path><path d="M1385 894.5L1440 829.2L1356 799.2Z" fill="#1d4e6b" stroke="#1d4e6b"></path><path d="M1440 855.5L1440 829.2L1385 894.5Z" fill="#297ea6" stroke="#297ea6"></path><path d="M201 29.3L165 0L169 62.3Z" fill="#246688" stroke="#246688"></path><path d="M169 62.3L107 49.3L128 129.5Z" fill="#1d4e6b" stroke="#1d4e6b"></path><path d="M322 0L165 0L201 29.3Z" fill="#081a28" stroke="#081a28"></path><path d="M165 0L159 0L169 62.3Z" fill="#081a28" stroke="#081a28"></path><path d="M1440 88.3L1360 144.5L1386 173.8Z" fill="#0c2435" stroke="#0c2435"></path><path d="M1348 16.3L1281 57.3L1360 144.5Z" fill="#081a28" stroke="#081a28"></path><path d="M1348 16.3L1292 0L1281 57.3Z" fill="#246688" stroke="#246688"></path><path d="M1281 57.3L1292 0L1198 32.3Z" fill="#1d4e6b" stroke="#1d4e6b"></path><path d="M54 233.8L101 194.8L34 118.5Z" fill="#0c2435" stroke="#0c2435"></path><path d="M1440 1004.7L1440 855.5L1385 894.5Z" fill="#1d4e6b" stroke="#1d4e6b"></path><path d="M34 118.5L101 194.8L128 129.5Z" fill="#19435d" stroke="#19435d"></path><path d="M159 0L107 49.3L169 62.3Z" fill="#00101c" stroke="#00101c"></path><path d="M117 951.7L98 1024L212 1024Z" fill="#15384f" stroke="#15384f"></path><path d="M46 951.7L100 912.5L77 872.5Z" fill="#0c2435" stroke="#0c2435"></path><path d="M0 917.5L77 872.5L46 810.2Z" fill="#1d4e6b" stroke="#1d4e6b"></path><path d="M1440 272.1L1440 179.5L1386 173.8Z" fill="#081a28" stroke="#081a28"></path><path d="M46 951.7L93 1024L117 951.7Z" fill="#112e42" stroke="#112e42"></path><path d="M1440 179.5L1440 169.8L1386 173.8Z" fill="#19435d" stroke="#19435d"></path><path d="M107 49.3L34 118.5L128 129.5Z" fill="#277297" stroke="#277297"></path><path d="M1440 88.3L1348 16.3L1360 144.5Z" fill="#1d4e6b" stroke="#1d4e6b"></path><path d="M0 781.2L0 917.5L46 810.2Z" fill="#15384f" stroke="#15384f"></path><path d="M46 951.7L0 1024L93 1024Z" fill="#246688" stroke="#246688"></path><path d="M0 98.3L0 127.5L34 118.5Z" fill="#277297" stroke="#277297"></path><path d="M34 118.5L0 127.5L54 233.8Z" fill="#0c2435" stroke="#0c2435"></path><path d="M0 98.3L34 118.5L107 49.3Z" fill="#112e42" stroke="#112e42"></path><path d="M0 917.5L0 959.7L46 951.7Z" fill="#081a28" stroke="#081a28"></path><path d="M1440 169.8L1440 88.3L1386 173.8Z" fill="#277297" stroke="#277297"></path><path d="M66 0L0 98.3L107 49.3Z" fill="#0c2435" stroke="#0c2435"></path><path d="M159 0L66 0L107 49.3Z" fill="#277297" stroke="#277297"></path><path d="M1322 1024L1440 1004.7L1385 894.5Z" fill="#246688" stroke="#246688"></path><path d="M1322 1024L1440 1024L1440 1004.7Z" fill="#246688" stroke="#246688"></path><path d="M0 959.7L0 1024L46 951.7Z" fill="#0c2435" stroke="#0c2435"></path><path d="M1440 88.3L1417 0L1348 16.3Z" fill="#297ea6" stroke="#297ea6"></path><path d="M1348 16.3L1417 0L1292 0Z" fill="#15384f" stroke="#15384f"></path><path d="M1440 88.3L1440 0L1417 0Z" fill="#00101c" stroke="#00101c"></path><path d="M66 0L0 0L0 98.3Z" fill="#081a28" stroke="#081a28"></path></g></svg>