<svg width="300" height="60" viewBox="0 0 300 60" fill="none" xmlns="http://www.w3.org/2000/svg">
<rect width="300" height="60" rx="30" fill="#9CDDFF"/>
<path d="M111.645 41.195C111.885 41.555 112.14 42.065 112.41 42.725C112.71 43.385 112.89 44.06 112.95 44.75L106.875 47.72C105.765 47.21 104.79 46.595 103.95 45.875C103.11 45.155 102.48 44.405 102.06 43.625L103.005 28.865L103.365 15.86L99.855 16.76C99.645 16.4 99.39 15.905 99.09 15.275C98.79 14.615 98.61 13.94 98.55 13.25L104.625 10.28C104.925 10.31 105.39 10.46 106.02 10.73C106.68 11 107.325 11.315 107.955 11.675C108.585 12.035 109.035 12.35 109.305 12.62L107.37 29.27L107.73 42.23L111.645 41.195ZM125.901 23.78C127.101 23.9 128.211 24.32 129.231 25.04C130.251 25.76 131.151 26.63 131.931 27.65C132.711 28.64 133.311 29.675 133.731 30.755L133.371 41.555C133.131 42.035 132.756 42.62 132.246 43.31C131.766 43.97 131.226 44.615 130.626 45.245C130.056 45.875 129.486 46.4 128.916 46.82C128.016 47.09 127.161 47.3 126.351 47.45C125.541 47.63 124.626 47.72 123.606 47.72C122.616 47.72 121.371 47.66 119.871 47.54C119.271 47.3 118.566 46.88 117.756 46.28C116.946 45.65 116.211 44.96 115.551 44.21C114.891 43.43 114.471 42.695 114.291 42.005L114.876 29.765C115.116 29.165 115.431 28.505 115.821 27.785C116.241 27.035 116.691 26.315 117.171 25.625C117.681 24.935 118.176 24.41 118.656 24.05C119.436 24.26 120.111 24.59 120.681 25.04C121.251 25.46 121.686 25.88 121.986 26.3C121.176 27.26 120.576 28.49 120.186 29.99C119.796 31.49 119.556 33.05 119.466 34.67C119.376 36.29 119.406 37.805 119.556 39.215C119.736 40.595 119.976 41.675 120.276 42.455C121.536 42.695 122.796 42.785 124.056 42.725C125.346 42.635 126.546 42.44 127.656 42.14C128.286 40.31 128.631 38.45 128.691 36.56C128.751 34.64 128.616 32.975 128.286 31.565C127.266 30.785 126.336 30.17 125.496 29.72C124.686 29.24 123.741 28.79 122.661 28.37C123.201 27.38 123.696 26.57 124.146 25.94C124.626 25.28 125.211 24.56 125.901 23.78ZM157.044 28.685C156.534 30.875 155.784 32.945 154.794 34.895L155.829 49.7C155.529 50.36 155.079 51.125 154.479 51.995C153.909 52.865 153.264 53.705 152.544 54.515C151.854 55.325 151.164 55.97 150.474 56.45C149.184 56.81 147.774 57.05 146.244 57.17C144.714 57.32 143.184 57.35 141.654 57.26C140.124 57.17 138.714 57.005 137.424 56.765C137.394 56.285 137.409 55.685 137.469 54.965C137.529 54.275 137.619 53.585 137.739 52.895C137.889 52.205 138.069 51.65 138.279 51.23C139.239 51.59 140.334 51.86 141.564 52.04C142.824 52.25 144.114 52.355 145.434 52.355C146.754 52.355 147.969 52.28 149.079 52.13C149.769 50.54 150.219 48.875 150.429 47.135C150.639 45.425 150.759 43.355 150.789 40.925C149.139 42.905 147.444 44.51 145.704 45.74C143.964 46.94 142.464 47.6 141.204 47.72C140.754 47.48 140.199 47.06 139.539 46.46C138.909 45.83 138.309 45.14 137.739 44.39C137.199 43.61 136.839 42.875 136.659 42.185L137.604 29.765C138.054 28.805 138.699 27.845 139.539 26.885C140.379 25.895 141.219 25.1 142.059 24.5C144.219 24.11 146.319 23.885 148.359 23.825C150.399 23.735 152.649 24.08 155.109 24.86C155.439 25.22 155.739 25.655 156.009 26.165C156.279 26.675 156.504 27.17 156.684 27.65C156.894 28.1 157.014 28.445 157.044 28.685ZM142.869 42.23C144.009 41.81 145.269 40.895 146.649 39.485C148.029 38.075 149.274 36.41 150.384 34.49L150.339 28.325C149.109 28.295 147.909 28.355 146.739 28.505C145.569 28.655 144.459 28.88 143.409 29.18C142.869 30.68 142.479 32.21 142.239 33.77C142.029 35.3 141.924 36.725 141.924 38.045C141.954 39.335 142.059 40.37 142.239 41.15C142.419 41.93 142.629 42.29 142.869 42.23ZM165.845 21.215C164.285 20.375 162.875 19.265 161.615 17.885C161.645 17.405 161.84 16.865 162.2 16.265C162.59 15.635 163.04 15.065 163.55 14.555C164.09 14.015 164.6 13.685 165.08 13.565C165.56 13.565 166.1 13.76 166.7 14.15C167.3 14.51 167.855 14.96 168.365 15.5C168.875 16.01 169.175 16.505 169.265 16.985C169.235 17.495 169.025 18.065 168.635 18.695C168.245 19.295 167.795 19.835 167.285 20.315C166.775 20.765 166.295 21.065 165.845 21.215ZM170.795 40.97C171.005 41.33 171.26 41.885 171.56 42.635C171.86 43.355 172.04 44.06 172.1 44.75L166.025 47.72C163.745 46.67 162.185 45.32 161.345 43.67L162.29 29.54L159.005 30.53C158.795 30.17 158.54 29.63 158.24 28.91C157.94 28.16 157.76 27.44 157.7 26.75L163.775 23.78C164.075 23.81 164.51 23.975 165.08 24.275C165.65 24.575 166.205 24.905 166.745 25.265C167.315 25.625 167.75 25.925 168.05 26.165L166.79 36.065V42.185L170.795 40.97ZM197.117 41.195C197.387 41.555 197.657 42.065 197.927 42.725C198.197 43.385 198.362 44.06 198.422 44.75L192.347 47.72C191.567 47.33 190.742 46.82 189.872 46.19C189.002 45.56 188.312 44.87 187.802 44.12C188.342 42.23 188.702 40.325 188.882 38.405C189.062 36.485 189.107 34.7 189.017 33.05C188.957 31.37 188.792 30.005 188.522 28.955C187.772 29.285 186.962 29.87 186.092 30.71C185.252 31.52 184.412 32.495 183.572 33.635C182.732 34.775 181.952 36.005 181.232 37.325L180.962 47C180.302 47.18 179.537 47.27 178.667 47.27C177.797 47.27 177.017 47.18 176.327 47C175.397 46.01 174.632 44.885 174.032 43.625C174.302 42.275 174.662 40.97 175.112 39.71C175.592 38.45 176.117 37.265 176.687 36.155L176.732 35.48L176.192 29.27L172.277 30.26C172.067 29.9 171.812 29.405 171.512 28.775C171.212 28.115 171.032 27.44 170.972 26.75L177.047 23.78C177.347 23.81 177.767 23.975 178.307 24.275C178.877 24.575 179.432 24.905 179.972 25.265C180.542 25.595 180.962 25.88 181.232 26.12L181.052 29.9C182.732 27.98 184.412 26.48 186.092 25.4C187.802 24.32 189.212 23.78 190.322 23.78C190.772 24.02 191.267 24.44 191.807 25.04C192.347 25.64 192.842 26.315 193.292 27.065C193.742 27.785 194.057 28.505 194.237 29.225L193.472 42.14L197.117 41.195Z" fill="black"/>
</svg>
