<svg width="55" height="55" viewBox="0 0 55 55" fill="none" xmlns="http://www.w3.org/2000/svg">
<g clip-path="url(#clip0_0_1)">
<path d="M43.4933 23.7363C43.6618 22.7708 43.7548 21.7777 43.7548 20.7623C43.7548 11.5326 36.4628 4.02295 27.4997 4.02295C18.5363 4.02295 11.2439 11.5326 11.2439 20.7623C11.2439 21.7777 11.3373 22.77 11.5062 23.7363C10.0948 24.6377 9.15625 26.2137 9.15625 28.0136V44.4009C9.15625 47.2039 11.4287 49.4759 14.2309 49.4759H40.7682C43.5696 49.4759 45.8416 47.2039 45.8416 44.4009H45.8432V28.0136C45.8432 26.2141 44.9055 24.6377 43.4933 23.7363ZM29.7389 38.045V41.6062C29.7389 42.8439 28.7363 43.8465 27.4989 43.8465C26.2616 43.8465 25.259 42.8439 25.259 41.6062V38.0434C23.8223 37.2517 22.8477 35.7239 22.8477 33.9671C22.8477 31.3983 24.9302 29.3154 27.4997 29.3154C30.0693 29.3154 32.1522 31.3983 32.1522 33.9671C32.1522 35.7247 31.1768 37.2536 29.7389 38.045ZM37.5699 22.9382H17.4292C17.2911 22.2359 17.2175 21.5074 17.2175 20.7623C17.2175 14.8259 21.83 9.99658 27.4997 9.99658C33.1691 9.99658 37.7812 14.8255 37.7812 20.7623C37.7812 21.5074 37.7084 22.2359 37.5699 22.9382Z" fill="#547DBF"/>
</g>
<defs>
<clipPath id="clip0_0_1">
<rect width="55" height="55" fill="white"/>
</clipPath>
</defs>
</svg>
