<svg id="visual" viewBox="0 0 430 932" width="430" height="932" xmlns="http://www.w3.org/2000/svg" xmlns:xlink="http://www.w3.org/1999/xlink" version="1.1"><g stroke-width="1" stroke-linejoin="bevel"><path d="M198 435.2L175.3 435.2L174 437Z" fill="#15384f" stroke="#15384f"></path><path d="M198 435.2L190.3 380.4L175.3 435.2Z" fill="#15384f" stroke="#15384f"></path><path d="M115.5 392.4L123.3 450L174 437Z" fill="#15384f" stroke="#15384f"></path><path d="M174 437L183 508.8L198 435.2Z" fill="#1d4e6b" stroke="#1d4e6b"></path><path d="M228.8 421.2L190.3 380.4L198 435.2Z" fill="#1d4e6b" stroke="#1d4e6b"></path><path d="M175.3 435.2L115.5 392.4L174 437Z" fill="#246688" stroke="#246688"></path><path d="M123.3 450L183 508.8L174 437Z" fill="#081a28" stroke="#081a28"></path><path d="M198 435.2L267.8 451L228.8 421.2Z" fill="#00101c" stroke="#00101c"></path><path d="M87.5 433L109.5 454.2L123.3 450Z" fill="#297ea6" stroke="#297ea6"></path><path d="M123.3 450L128.5 518.8L183 508.8Z" fill="#1d4e6b" stroke="#1d4e6b"></path><path d="M183 508.8L267.8 451L198 435.2Z" fill="#277297" stroke="#277297"></path><path d="M228 333.7L208 340.4L190.3 380.4Z" fill="#081a28" stroke="#081a28"></path><path d="M190.3 380.4L115.5 392.4L175.3 435.2Z" fill="#1d4e6b" stroke="#1d4e6b"></path><path d="M155.3 541.6L182.3 535.8L183 508.8Z" fill="#205a7a" stroke="#205a7a"></path><path d="M183 508.8L291.8 535.8L267.8 451Z" fill="#246688" stroke="#246688"></path><path d="M109.5 454.2L128.5 518.8L123.3 450Z" fill="#277297" stroke="#277297"></path><path d="M115.5 392.4L87.5 433L123.3 450Z" fill="#15384f" stroke="#15384f"></path><path d="M109.5 454.2L79.8 501L128.5 518.8Z" fill="#081a28" stroke="#081a28"></path><path d="M128.5 518.8L155.3 541.6L183 508.8Z" fill="#277297" stroke="#277297"></path><path d="M346.5 499.8L290.5 436L267.8 451Z" fill="#1d4e6b" stroke="#1d4e6b"></path><path d="M267.8 451L290.5 436L228.8 421.2Z" fill="#0c2435" stroke="#0c2435"></path><path d="M228 333.7L190.3 380.4L228.8 421.2Z" fill="#081a28" stroke="#081a28"></path><path d="M190.3 380.4L169.3 319.7L115.5 392.4Z" fill="#1d4e6b" stroke="#1d4e6b"></path><path d="M58.8 367.4L83.8 401.2L115.5 392.4Z" fill="#0c2435" stroke="#0c2435"></path><path d="M115.5 392.4L83.8 401.2L87.5 433Z" fill="#205a7a" stroke="#205a7a"></path><path d="M304.8 334.4L228 333.7L228.8 421.2Z" fill="#00101c" stroke="#00101c"></path><path d="M87.5 433L79.8 501L109.5 454.2Z" fill="#1d4e6b" stroke="#1d4e6b"></path><path d="M128.5 518.8L88.5 531.6L155.3 541.6Z" fill="#00101c" stroke="#00101c"></path><path d="M48.8 498.8L79.8 501L87.5 433Z" fill="#277297" stroke="#277297"></path><path d="M175 271.9L169.3 319.7L208 340.4Z" fill="#297ea6" stroke="#297ea6"></path><path d="M208 340.4L169.3 319.7L190.3 380.4Z" fill="#1d4e6b" stroke="#1d4e6b"></path><path d="M79.8 501L88.5 531.6L128.5 518.8Z" fill="#112e42" stroke="#112e42"></path><path d="M201 605.6L291.8 535.8L182.3 535.8Z" fill="#0c2435" stroke="#0c2435"></path><path d="M182.3 535.8L291.8 535.8L183 508.8Z" fill="#15384f" stroke="#15384f"></path><path d="M291.8 535.8L296.5 531.6L267.8 451Z" fill="#246688" stroke="#246688"></path><path d="M0 468L48.8 498.8L87.5 433Z" fill="#297ea6" stroke="#297ea6"></path><path d="M79.8 501L48.8 498.8L88.5 531.6Z" fill="#15384f" stroke="#15384f"></path><path d="M346.5 499.8L335.5 437.2L290.5 436Z" fill="#277297" stroke="#277297"></path><path d="M290.5 436L304.8 334.4L228.8 421.2Z" fill="#081a28" stroke="#081a28"></path><path d="M72.5 330.7L58.8 367.4L115.5 392.4Z" fill="#081a28" stroke="#081a28"></path><path d="M0 412.2L0 468L87.5 433Z" fill="#081a28" stroke="#081a28"></path><path d="M91.8 602.3L172.3 597.3L155.3 541.6Z" fill="#277297" stroke="#277297"></path><path d="M155.3 541.6L172.3 597.3L182.3 535.8Z" fill="#15384f" stroke="#15384f"></path><path d="M87.8 309.7L72.5 330.7L115.5 392.4Z" fill="#00101c" stroke="#00101c"></path><path d="M335.5 437.2L304.8 334.4L290.5 436Z" fill="#277297" stroke="#277297"></path><path d="M228 333.7L175 271.9L208 340.4Z" fill="#277297" stroke="#277297"></path><path d="M172.3 597.3L201 605.6L182.3 535.8Z" fill="#1d4e6b" stroke="#1d4e6b"></path><path d="M147.3 273.9L87.8 309.7L169.3 319.7Z" fill="#205a7a" stroke="#205a7a"></path><path d="M169.3 319.7L87.8 309.7L115.5 392.4Z" fill="#277297" stroke="#277297"></path><path d="M371.3 544.8L346.5 499.8L296.5 531.6Z" fill="#1d4e6b" stroke="#1d4e6b"></path><path d="M296.5 531.6L346.5 499.8L267.8 451Z" fill="#081a28" stroke="#081a28"></path><path d="M297.5 596.3L296.5 531.6L291.8 535.8Z" fill="#0c2435" stroke="#0c2435"></path><path d="M269.8 288.7L175 271.9L228 333.7Z" fill="#205a7a" stroke="#205a7a"></path><path d="M383.3 486L359.3 431.2L335.5 437.2Z" fill="#0c2435" stroke="#0c2435"></path><path d="M335.5 437.2L359.5 335.4L304.8 334.4Z" fill="#19435d" stroke="#19435d"></path><path d="M175 271.9L147.3 273.9L169.3 319.7Z" fill="#277297" stroke="#277297"></path><path d="M304.8 334.4L269.8 288.7L228 333.7Z" fill="#297ea6" stroke="#297ea6"></path><path d="M44.8 574.6L91.8 602.3L88.5 531.6Z" fill="#19435d" stroke="#19435d"></path><path d="M88.5 531.6L91.8 602.3L155.3 541.6Z" fill="#1d4e6b" stroke="#1d4e6b"></path><path d="M135.5 648.3L218 640.3L201 605.6Z" fill="#081a28" stroke="#081a28"></path><path d="M201 605.6L297.5 596.3L291.8 535.8Z" fill="#081a28" stroke="#081a28"></path><path d="M0 412.2L87.5 433L83.8 401.2Z" fill="#246688" stroke="#246688"></path><path d="M48.8 498.8L44.8 574.6L88.5 531.6Z" fill="#0c2435" stroke="#0c2435"></path><path d="M0 412.2L83.8 401.2L58.8 367.4Z" fill="#15384f" stroke="#15384f"></path><path d="M0 369.4L58.8 367.4L72.5 330.7Z" fill="#297ea6" stroke="#297ea6"></path><path d="M0 369.4L0 412.2L58.8 367.4Z" fill="#1d4e6b" stroke="#1d4e6b"></path><path d="M201 605.6L291.8 605.6L297.5 596.3Z" fill="#00101c" stroke="#00101c"></path><path d="M0 543.6L44.8 574.6L48.8 498.8Z" fill="#19435d" stroke="#19435d"></path><path d="M147.3 273.9L71.8 286.9L87.8 309.7Z" fill="#19435d" stroke="#19435d"></path><path d="M87.8 309.7L71.8 286.9L72.5 330.7Z" fill="#15384f" stroke="#15384f"></path><path d="M135.5 648.3L201 605.6L172.3 597.3Z" fill="#15384f" stroke="#15384f"></path><path d="M201 605.6L218 640.3L291.8 605.6Z" fill="#0c2435" stroke="#0c2435"></path><path d="M271.8 226.9L164.3 246.1L175 271.9Z" fill="#15384f" stroke="#15384f"></path><path d="M175 271.9L164.3 246.1L147.3 273.9Z" fill="#205a7a" stroke="#205a7a"></path><path d="M147.3 273.9L66.5 269.9L71.8 286.9Z" fill="#0c2435" stroke="#0c2435"></path><path d="M371.3 544.8L383.3 486L346.5 499.8Z" fill="#0c2435" stroke="#0c2435"></path><path d="M346.5 499.8L383.3 486L335.5 437.2Z" fill="#246688" stroke="#246688"></path><path d="M371.3 544.8L296.5 531.6L297.5 596.3Z" fill="#15384f" stroke="#15384f"></path><path d="M0 287.7L0 369.4L72.5 330.7Z" fill="#081a28" stroke="#081a28"></path><path d="M359.3 431.2L359.5 335.4L335.5 437.2Z" fill="#297ea6" stroke="#297ea6"></path><path d="M304.8 334.4L310.5 281.9L269.8 288.7Z" fill="#081a28" stroke="#081a28"></path><path d="M401.3 402.4L359.5 335.4L359.3 431.2Z" fill="#1d4e6b" stroke="#1d4e6b"></path><path d="M359.5 314.7L310.5 281.9L304.8 334.4Z" fill="#277297" stroke="#277297"></path><path d="M269.8 288.7L271.8 226.9L175 271.9Z" fill="#277297" stroke="#277297"></path><path d="M386.3 555.6L371.3 544.8L335.3 639.1Z" fill="#0c2435" stroke="#0c2435"></path><path d="M94.5 692.9L135.5 648.3L91.8 602.3Z" fill="#246688" stroke="#246688"></path><path d="M91.8 602.3L135.5 648.3L172.3 597.3Z" fill="#00101c" stroke="#00101c"></path><path d="M0 468L0 543.6L48.8 498.8Z" fill="#1d4e6b" stroke="#1d4e6b"></path><path d="M44.8 574.6L0 639.1L91.8 602.3Z" fill="#205a7a" stroke="#205a7a"></path><path d="M88.5 202.1L66.5 269.9L147.3 273.9Z" fill="#19435d" stroke="#19435d"></path><path d="M71.8 286.9L0 287.7L72.5 330.7Z" fill="#0c2435" stroke="#0c2435"></path><path d="M430 340.4L359.5 314.7L359.5 335.4Z" fill="#246688" stroke="#246688"></path><path d="M359.5 335.4L359.5 314.7L304.8 334.4Z" fill="#0c2435" stroke="#0c2435"></path><path d="M0 543.6L0 555.8L44.8 574.6Z" fill="#00101c" stroke="#00101c"></path><path d="M430 442.2L359.3 431.2L383.3 486Z" fill="#277297" stroke="#277297"></path><path d="M430 442.2L401.3 402.4L359.3 431.2Z" fill="#15384f" stroke="#15384f"></path><path d="M218 640.3L247.8 657.3L291.8 605.6Z" fill="#277297" stroke="#277297"></path><path d="M335.3 639.1L371.3 544.8L297.5 596.3Z" fill="#112e42" stroke="#112e42"></path><path d="M212 706.1L247.8 657.3L218 640.3Z" fill="#205a7a" stroke="#205a7a"></path><path d="M335.3 639.1L297.5 596.3L291.8 605.6Z" fill="#081a28" stroke="#081a28"></path><path d="M371.3 544.8L386.3 555.6L383.3 486Z" fill="#277297" stroke="#277297"></path><path d="M272.8 195.1L271.8 226.9L295.8 191.3Z" fill="#00101c" stroke="#00101c"></path><path d="M310.5 281.9L271.8 226.9L269.8 288.7Z" fill="#1d4e6b" stroke="#1d4e6b"></path><path d="M430 478.8L430 442.2L383.3 486Z" fill="#112e42" stroke="#112e42"></path><path d="M401.3 402.4L430 340.4L359.5 335.4Z" fill="#297ea6" stroke="#297ea6"></path><path d="M66.5 269.9L0 287.7L71.8 286.9Z" fill="#112e42" stroke="#112e42"></path><path d="M247.8 657.3L335.3 639.1L291.8 605.6Z" fill="#00101c" stroke="#00101c"></path><path d="M430 480L430 478.8L383.3 486Z" fill="#0c2435" stroke="#0c2435"></path><path d="M386.3 555.6L430 480L383.3 486Z" fill="#246688" stroke="#246688"></path><path d="M0 555.8L0 605.3L44.8 574.6Z" fill="#19435d" stroke="#19435d"></path><path d="M66.5 269.9L0 273.9L0 287.7Z" fill="#112e42" stroke="#112e42"></path><path d="M12.8 241.1L0 273.9L66.5 269.9Z" fill="#205a7a" stroke="#205a7a"></path><path d="M88.5 202.1L147.3 273.9L164.3 246.1Z" fill="#297ea6" stroke="#297ea6"></path><path d="M126.3 180.3L88.5 202.1L164.3 246.1Z" fill="#112e42" stroke="#112e42"></path><path d="M188 707.9L218 640.3L135.5 648.3Z" fill="#19435d" stroke="#19435d"></path><path d="M188 707.9L212 706.1L218 640.3Z" fill="#19435d" stroke="#19435d"></path><path d="M247.8 657.3L344.5 669.1L335.3 639.1Z" fill="#15384f" stroke="#15384f"></path><path d="M149.3 708.1L188 707.9L135.5 648.3Z" fill="#081a28" stroke="#081a28"></path><path d="M295.8 191.3L271.8 226.9L310.5 281.9Z" fill="#297ea6" stroke="#297ea6"></path><path d="M271.8 226.9L246 186.1L164.3 246.1Z" fill="#0c2435" stroke="#0c2435"></path><path d="M430 442.2L430 340.4L401.3 402.4Z" fill="#19435d" stroke="#19435d"></path><path d="M359.5 314.7L380.3 245.1L310.5 281.9Z" fill="#246688" stroke="#246688"></path><path d="M87.5 696.1L94.5 692.9L91.8 602.3Z" fill="#277297" stroke="#277297"></path><path d="M272.8 195.1L246 186.1L271.8 226.9Z" fill="#297ea6" stroke="#297ea6"></path><path d="M335.3 639.1L408.3 591.3L386.3 555.6Z" fill="#19435d" stroke="#19435d"></path><path d="M386.3 555.6L430 581.6L430 480Z" fill="#112e42" stroke="#112e42"></path><path d="M94.5 692.9L149.3 708.1L135.5 648.3Z" fill="#246688" stroke="#246688"></path><path d="M88.5 202.1L12.8 241.1L66.5 269.9Z" fill="#081a28" stroke="#081a28"></path><path d="M430 296.9L396.3 277.9L359.5 314.7Z" fill="#0c2435" stroke="#0c2435"></path><path d="M244 787.7L248.8 706.1L212 706.1Z" fill="#15384f" stroke="#15384f"></path><path d="M212 706.1L248.8 706.1L247.8 657.3Z" fill="#1d4e6b" stroke="#1d4e6b"></path><path d="M335.3 639.1L430 644.1L408.3 591.3Z" fill="#0c2435" stroke="#0c2435"></path><path d="M0 605.3L0 639.1L44.8 574.6Z" fill="#081a28" stroke="#081a28"></path><path d="M45.8 699.1L87.5 696.1L91.8 602.3Z" fill="#0c2435" stroke="#0c2435"></path><path d="M94.5 692.9L70.8 742.7L149.3 708.1Z" fill="#205a7a" stroke="#205a7a"></path><path d="M187 131.6L126.3 180.3L164.3 246.1Z" fill="#00101c" stroke="#00101c"></path><path d="M88.5 202.1L53.8 154.3L12.8 241.1Z" fill="#246688" stroke="#246688"></path><path d="M282.5 715.9L344.5 669.1L247.8 657.3Z" fill="#112e42" stroke="#112e42"></path><path d="M272.8 195.1L235 141.3L246 186.1Z" fill="#246688" stroke="#246688"></path><path d="M350.5 189.1L295.8 191.3L310.5 281.9Z" fill="#1d4e6b" stroke="#1d4e6b"></path><path d="M430 292.7L401.3 270.7L396.3 277.9Z" fill="#297ea6" stroke="#297ea6"></path><path d="M396.3 277.9L380.3 245.1L359.5 314.7Z" fill="#081a28" stroke="#081a28"></path><path d="M401.3 270.7L380.3 245.1L396.3 277.9Z" fill="#0c2435" stroke="#0c2435"></path><path d="M430 583.3L430 581.6L408.3 591.3Z" fill="#081a28" stroke="#081a28"></path><path d="M408.3 591.3L430 581.6L386.3 555.6Z" fill="#15384f" stroke="#15384f"></path><path d="M430 644.1L430 583.3L408.3 591.3Z" fill="#205a7a" stroke="#205a7a"></path><path d="M149.3 708.1L185.3 726.9L188 707.9Z" fill="#15384f" stroke="#15384f"></path><path d="M188 707.9L185.3 726.9L212 706.1Z" fill="#205a7a" stroke="#205a7a"></path><path d="M201.3 802.4L185.3 726.9L131.3 798.7Z" fill="#205a7a" stroke="#205a7a"></path><path d="M430 340.4L430 296.9L359.5 314.7Z" fill="#277297" stroke="#277297"></path><path d="M430 184.3L364.3 179.3L380.3 245.1Z" fill="#205a7a" stroke="#205a7a"></path><path d="M430 296.9L430 292.7L396.3 277.9Z" fill="#277297" stroke="#277297"></path><path d="M248.8 706.1L282.5 715.9L247.8 657.3Z" fill="#297ea6" stroke="#297ea6"></path><path d="M283.8 721.9L282.5 715.9L248.8 706.1Z" fill="#1d4e6b" stroke="#1d4e6b"></path><path d="M0 639.1L45.8 699.1L91.8 602.3Z" fill="#246688" stroke="#246688"></path><path d="M87.5 696.1L70.8 742.7L94.5 692.9Z" fill="#19435d" stroke="#19435d"></path><path d="M244 787.7L283.8 721.9L248.8 706.1Z" fill="#205a7a" stroke="#205a7a"></path><path d="M282.5 715.9L342.3 721.9L344.5 669.1Z" fill="#0c2435" stroke="#0c2435"></path><path d="M380.3 245.1L350.5 189.1L310.5 281.9Z" fill="#15384f" stroke="#15384f"></path><path d="M295.8 191.3L235 141.3L272.8 195.1Z" fill="#0c2435" stroke="#0c2435"></path><path d="M246 186.1L187 131.6L164.3 246.1Z" fill="#112e42" stroke="#112e42"></path><path d="M364.3 179.3L350.5 189.1L380.3 245.1Z" fill="#205a7a" stroke="#205a7a"></path><path d="M315.5 129.3L235 141.3L295.8 191.3Z" fill="#205a7a" stroke="#205a7a"></path><path d="M235 141.3L187 131.6L246 186.1Z" fill="#112e42" stroke="#112e42"></path><path d="M126.3 180.3L53.8 154.3L88.5 202.1Z" fill="#297ea6" stroke="#297ea6"></path><path d="M344.5 669.1L430 644.1L335.3 639.1Z" fill="#081a28" stroke="#081a28"></path><path d="M430 747.9L430 644.1L344.5 669.1Z" fill="#297ea6" stroke="#297ea6"></path><path d="M341.5 803.7L342.3 721.9L283.8 721.9Z" fill="#277297" stroke="#277297"></path><path d="M283.8 721.9L342.3 721.9L282.5 715.9Z" fill="#19435d" stroke="#19435d"></path><path d="M142.5 125.3L53.8 154.3L126.3 180.3Z" fill="#205a7a" stroke="#205a7a"></path><path d="M430 184.3L380.3 245.1L401.3 270.7Z" fill="#19435d" stroke="#19435d"></path><path d="M325.5 130.6L315.5 129.3L295.8 191.3Z" fill="#246688" stroke="#246688"></path><path d="M56.8 755.9L70.8 742.7L45.8 699.1Z" fill="#1d4e6b" stroke="#1d4e6b"></path><path d="M45.8 699.1L70.8 742.7L87.5 696.1Z" fill="#0c2435" stroke="#0c2435"></path><path d="M185.3 726.9L244 787.7L212 706.1Z" fill="#15384f" stroke="#15384f"></path><path d="M187 131.6L142.5 125.3L126.3 180.3Z" fill="#112e42" stroke="#112e42"></path><path d="M0 639.1L0 718.9L45.8 699.1Z" fill="#081a28" stroke="#081a28"></path><path d="M0 125.3L0 169.1L53.8 154.3Z" fill="#112e42" stroke="#112e42"></path><path d="M53.8 154.3L0 169.1L12.8 241.1Z" fill="#00101c" stroke="#00101c"></path><path d="M12.8 241.1L0 169.1L0 273.9Z" fill="#277297" stroke="#277297"></path><path d="M0 718.9L56.8 755.9L45.8 699.1Z" fill="#081a28" stroke="#081a28"></path><path d="M70.8 742.7L131.3 798.7L149.3 708.1Z" fill="#19435d" stroke="#19435d"></path><path d="M325.5 130.6L295.8 191.3L350.5 189.1Z" fill="#205a7a" stroke="#205a7a"></path><path d="M170.3 48.8L138.3 69.6L187 131.6Z" fill="#0c2435" stroke="#0c2435"></path><path d="M187 131.6L138.3 69.6L142.5 125.3Z" fill="#19435d" stroke="#19435d"></path><path d="M0 805.7L66.5 765.7L56.8 755.9Z" fill="#0c2435" stroke="#0c2435"></path><path d="M56.8 755.9L66.5 765.7L70.8 742.7Z" fill="#112e42" stroke="#112e42"></path><path d="M364.3 179.3L325.5 130.6L350.5 189.1Z" fill="#081a28" stroke="#081a28"></path><path d="M201.3 802.4L244 787.7L185.3 726.9Z" fill="#277297" stroke="#277297"></path><path d="M430 292.7L430 184.3L401.3 270.7Z" fill="#0c2435" stroke="#0c2435"></path><path d="M364.3 179.3L373.3 137.6L325.5 130.6Z" fill="#00101c" stroke="#00101c"></path><path d="M131.3 798.7L185.3 726.9L149.3 708.1Z" fill="#277297" stroke="#277297"></path><path d="M66.5 765.7L131.3 798.7L70.8 742.7Z" fill="#112e42" stroke="#112e42"></path><path d="M430 168.1L373.3 137.6L364.3 179.3Z" fill="#297ea6" stroke="#297ea6"></path><path d="M241 854.4L272.8 799.7L244 787.7Z" fill="#112e42" stroke="#112e42"></path><path d="M244 787.7L272.8 799.7L283.8 721.9Z" fill="#1d4e6b" stroke="#1d4e6b"></path><path d="M342.3 721.9L430 747.9L344.5 669.1Z" fill="#00101c" stroke="#00101c"></path><path d="M430 184.3L430 168.1L364.3 179.3Z" fill="#112e42" stroke="#112e42"></path><path d="M0 93.6L0 125.3L53.8 154.3Z" fill="#205a7a" stroke="#205a7a"></path><path d="M341.5 803.7L371.3 773.7L342.3 721.9Z" fill="#19435d" stroke="#19435d"></path><path d="M268.8 68.6L187 131.6L235 141.3Z" fill="#112e42" stroke="#112e42"></path><path d="M142.5 125.3L95.5 76.6L53.8 154.3Z" fill="#205a7a" stroke="#205a7a"></path><path d="M268.8 68.6L235 141.3L315.5 129.3Z" fill="#1d4e6b" stroke="#1d4e6b"></path><path d="M268.8 68.6L315.5 129.3L290.8 61.8Z" fill="#112e42" stroke="#112e42"></path><path d="M138.3 69.6L95.5 76.6L142.5 125.3Z" fill="#19435d" stroke="#19435d"></path><path d="M290.8 61.8L325.5 130.6L354.5 33.8Z" fill="#19435d" stroke="#19435d"></path><path d="M290.8 61.8L315.5 129.3L325.5 130.6Z" fill="#246688" stroke="#246688"></path><path d="M138.3 69.6L99.5 66.8L95.5 76.6Z" fill="#0c2435" stroke="#0c2435"></path><path d="M95.5 76.6L66.8 65.6L53.8 154.3Z" fill="#00101c" stroke="#00101c"></path><path d="M70.8 28.8L99.5 66.8L139.5 0Z" fill="#081a28" stroke="#081a28"></path><path d="M371.3 773.7L430 747.9L342.3 721.9Z" fill="#00101c" stroke="#00101c"></path><path d="M272.8 799.7L341.5 803.7L283.8 721.9Z" fill="#19435d" stroke="#19435d"></path><path d="M371.3 773.7L430 781.7L430 747.9Z" fill="#297ea6" stroke="#297ea6"></path><path d="M307.5 846.2L341.5 803.7L272.8 799.7Z" fill="#19435d" stroke="#19435d"></path><path d="M430 168.1L430 134.6L373.3 137.6Z" fill="#297ea6" stroke="#297ea6"></path><path d="M268.8 68.6L170.3 48.8L187 131.6Z" fill="#19435d" stroke="#19435d"></path><path d="M354.5 33.8L325.5 130.6L373.3 137.6Z" fill="#00101c" stroke="#00101c"></path><path d="M268.8 68.6L230 28.8L170.3 48.8Z" fill="#277297" stroke="#277297"></path><path d="M70.8 28.8L66.8 65.6L99.5 66.8Z" fill="#277297" stroke="#277297"></path><path d="M99.5 66.8L66.8 65.6L95.5 76.6Z" fill="#15384f" stroke="#15384f"></path><path d="M66.8 65.6L0 93.6L53.8 154.3Z" fill="#081a28" stroke="#081a28"></path><path d="M0 718.9L0 805.7L56.8 755.9Z" fill="#297ea6" stroke="#297ea6"></path><path d="M66.5 765.7L69.5 855.4L131.3 798.7Z" fill="#15384f" stroke="#15384f"></path><path d="M187.3 917.2L241 854.4L201.3 802.4Z" fill="#277297" stroke="#277297"></path><path d="M201.3 802.4L241 854.4L244 787.7Z" fill="#1d4e6b" stroke="#1d4e6b"></path><path d="M0 805.7L36.8 845.4L66.5 765.7Z" fill="#277297" stroke="#277297"></path><path d="M244 872.2L241 854.4L187.3 917.2Z" fill="#19435d" stroke="#19435d"></path><path d="M241 854.4L272.8 851.2L272.8 799.7Z" fill="#1d4e6b" stroke="#1d4e6b"></path><path d="M411.3 828.4L430 781.7L371.3 773.7Z" fill="#00101c" stroke="#00101c"></path><path d="M411.3 828.4L371.3 773.7L341.5 803.7Z" fill="#00101c" stroke="#00101c"></path><path d="M249 0L230 28.8L268.8 68.6Z" fill="#00101c" stroke="#00101c"></path><path d="M70.8 28.8L0 59.8L66.8 65.6Z" fill="#277297" stroke="#277297"></path><path d="M249 0L268.8 68.6L290.8 61.8Z" fill="#205a7a" stroke="#205a7a"></path><path d="M272.8 851.2L307.5 846.2L272.8 799.7Z" fill="#297ea6" stroke="#297ea6"></path><path d="M297.8 862.4L307.5 846.2L272.8 851.2Z" fill="#19435d" stroke="#19435d"></path><path d="M297.8 862.4L315.5 851.4L307.5 846.2Z" fill="#0c2435" stroke="#0c2435"></path><path d="M307.5 846.2L315.5 851.4L341.5 803.7Z" fill="#112e42" stroke="#112e42"></path><path d="M36.8 845.4L69.5 855.4L66.5 765.7Z" fill="#297ea6" stroke="#297ea6"></path><path d="M99.5 66.8L138.3 69.6L139.5 0Z" fill="#112e42" stroke="#112e42"></path><path d="M66.8 65.6L0 59.8L0 93.6Z" fill="#246688" stroke="#246688"></path><path d="M0 809.4L36.8 845.4L0 805.7Z" fill="#00101c" stroke="#00101c"></path><path d="M187.3 917.2L201.3 802.4L131.3 798.7Z" fill="#0c2435" stroke="#0c2435"></path><path d="M241 854.4L244 872.2L272.8 851.2Z" fill="#00101c" stroke="#00101c"></path><path d="M139.5 0L138.3 69.6L170.3 48.8Z" fill="#297ea6" stroke="#297ea6"></path><path d="M244 872.2L297.8 862.4L272.8 851.2Z" fill="#277297" stroke="#277297"></path><path d="M371.3 852.2L411.3 828.4L341.5 803.7Z" fill="#205a7a" stroke="#205a7a"></path><path d="M83.5 932L102.5 899.2L44.8 932Z" fill="#0c2435" stroke="#0c2435"></path><path d="M0 809.4L0 845.2L36.8 845.4Z" fill="#297ea6" stroke="#297ea6"></path><path d="M411.3 48.8L354.5 33.8L373.3 137.6Z" fill="#277297" stroke="#277297"></path><path d="M249 0L186.3 0L230 28.8Z" fill="#0c2435" stroke="#0c2435"></path><path d="M230 28.8L186.3 0L170.3 48.8Z" fill="#112e42" stroke="#112e42"></path><path d="M371.3 852.2L341.5 803.7L315.5 851.4Z" fill="#0c2435" stroke="#0c2435"></path><path d="M186.3 0L139.5 0L170.3 48.8Z" fill="#297ea6" stroke="#297ea6"></path><path d="M331.5 932L315.5 851.4L297.8 862.4Z" fill="#081a28" stroke="#081a28"></path><path d="M331.5 932L371.3 852.2L315.5 851.4Z" fill="#19435d" stroke="#19435d"></path><path d="M301.5 0L249 0L290.8 61.8Z" fill="#19435d" stroke="#19435d"></path><path d="M430 885.2L430 825.4L411.3 828.4Z" fill="#15384f" stroke="#15384f"></path><path d="M411.3 828.4L430 825.4L430 781.7Z" fill="#081a28" stroke="#081a28"></path><path d="M430 134.6L411.3 48.8L373.3 137.6Z" fill="#205a7a" stroke="#205a7a"></path><path d="M308.8 0L301.5 0L290.8 61.8Z" fill="#1d4e6b" stroke="#1d4e6b"></path><path d="M139.5 0L73.8 0L70.8 28.8Z" fill="#246688" stroke="#246688"></path><path d="M70.8 28.8L0 0L0 59.8Z" fill="#297ea6" stroke="#297ea6"></path><path d="M308.8 0L290.8 61.8L354.5 33.8Z" fill="#19435d" stroke="#19435d"></path><path d="M351.3 0L308.8 0L354.5 33.8Z" fill="#15384f" stroke="#15384f"></path><path d="M102.5 899.2L69.5 855.4L44.8 932Z" fill="#0c2435" stroke="#0c2435"></path><path d="M69.5 855.4L102.5 899.2L131.3 798.7Z" fill="#112e42" stroke="#112e42"></path><path d="M244 872.2L243.8 932L297.8 862.4Z" fill="#0c2435" stroke="#0c2435"></path><path d="M430 134.6L430 40.8L411.3 48.8Z" fill="#297ea6" stroke="#297ea6"></path><path d="M411.3 48.8L351.3 0L354.5 33.8Z" fill="#00101c" stroke="#00101c"></path><path d="M102.5 899.2L187.3 917.2L131.3 798.7Z" fill="#19435d" stroke="#19435d"></path><path d="M430 0L351.3 0L411.3 48.8Z" fill="#112e42" stroke="#112e42"></path><path d="M73.8 0L0 0L70.8 28.8Z" fill="#246688" stroke="#246688"></path><path d="M102.5 899.2L181.3 932L187.3 917.2Z" fill="#19435d" stroke="#19435d"></path><path d="M187.3 917.2L205 932L244 872.2Z" fill="#0c2435" stroke="#0c2435"></path><path d="M181.3 932L205 932L187.3 917.2Z" fill="#246688" stroke="#246688"></path><path d="M371.3 852.2L430 885.2L411.3 828.4Z" fill="#081a28" stroke="#081a28"></path><path d="M205 932L243.8 932L244 872.2Z" fill="#19435d" stroke="#19435d"></path><path d="M15.8 919.2L69.5 855.4L36.8 845.4Z" fill="#297ea6" stroke="#297ea6"></path><path d="M102.5 899.2L83.5 932L181.3 932Z" fill="#297ea6" stroke="#297ea6"></path><path d="M402.3 932L430 885.2L371.3 852.2Z" fill="#0c2435" stroke="#0c2435"></path><path d="M0 845.2L15.8 919.2L36.8 845.4Z" fill="#205a7a" stroke="#205a7a"></path><path d="M430 40.8L430 0L411.3 48.8Z" fill="#246688" stroke="#246688"></path><path d="M15.8 919.2L44.8 932L69.5 855.4Z" fill="#112e42" stroke="#112e42"></path><path d="M243.8 932L331.5 932L297.8 862.4Z" fill="#246688" stroke="#246688"></path><path d="M0 845.2L0 932L15.8 919.2Z" fill="#15384f" stroke="#15384f"></path><path d="M15.8 919.2L0 932L44.8 932Z" fill="#1d4e6b" stroke="#1d4e6b"></path><path d="M331.5 932L402.3 932L371.3 852.2Z" fill="#112e42" stroke="#112e42"></path><path d="M402.3 932L430 932L430 885.2Z" fill="#0c2435" stroke="#0c2435"></path></g></svg>