<svg width="300" height="60" viewBox="0 0 300 60" fill="none" xmlns="http://www.w3.org/2000/svg">
<rect width="300" height="60" rx="30" fill="#9CDDFF"/>
<path d="M89.12 20.44C89.4133 21.3733 89.9867 22.24 90.84 23.04C91.6933 23.84 92.6933 24.64 93.84 25.44C95.0133 26.2133 96.2133 27.0533 97.44 27.96C98.6933 28.8667 99.8667 29.9067 100.96 31.08C102.08 32.2533 102.987 33.6267 103.68 35.2C103.52 36.24 103.133 37.2933 102.52 38.36C101.907 39.4 101.173 40.3467 100.32 41.2C99.4667 42.0533 98.5867 42.72 97.68 43.2C96.72 43.36 95.6133 43.4667 94.36 43.52C93.1067 43.6 91.8 43.5733 90.44 43.44C89.1067 43.3067 87.8133 43.04 86.56 42.64C86.1867 42.3467 85.7467 41.9067 85.24 41.32C84.7333 40.7333 84.2933 40.1867 83.92 39.68L84.56 33.52C85.0667 33.36 85.6533 33.2533 86.32 33.2C87.0133 33.1467 87.6267 33.2 88.16 33.36L88.52 38.56C89.5867 38.72 90.7467 38.7733 92 38.72C93.28 38.6667 94.5333 38.52 95.76 38.28C97.0133 38.0133 98.0933 37.64 99 37.16C98.4667 36.0933 97.7067 35.12 96.72 34.24C95.7333 33.3333 94.64 32.4667 93.44 31.64C92.2667 30.7867 91.0933 29.92 89.92 29.04C88.7467 28.16 87.68 27.2267 86.72 26.24C85.7867 25.2533 85.08 24.1467 84.6 22.92C84.7867 21.88 85.1067 20.8533 85.56 19.84C86.04 18.8 86.5867 17.8667 87.2 17.04C87.84 16.1867 88.4667 15.5467 89.08 15.12C92.9467 14.0267 96.88 13.88 100.88 14.68C101.147 14.84 101.413 15.12 101.68 15.52C101.947 15.8933 102.2 16.2933 102.44 16.72C102.707 17.1467 102.92 17.48 103.08 17.72L102.48 23.16C101.973 23.3467 101.4 23.44 100.76 23.44C100.147 23.44 99.5333 23.3733 98.92 23.24L98.56 18.92C97.6533 18.84 96.64 18.84 95.52 18.92C94.4 18.9733 93.28 19.12 92.16 19.36C91.04 19.6 90.0267 19.96 89.12 20.44ZM111.051 20.08C109.664 19.3333 108.411 18.3467 107.291 17.12C107.318 16.6933 107.491 16.2133 107.811 15.68C108.158 15.12 108.558 14.6133 109.011 14.16C109.491 13.68 109.944 13.3867 110.371 13.28C110.798 13.28 111.278 13.4533 111.811 13.8C112.344 14.12 112.838 14.52 113.291 15C113.744 15.4533 114.011 15.8933 114.091 16.32C114.064 16.7733 113.878 17.28 113.531 17.84C113.184 18.3733 112.784 18.8533 112.331 19.28C111.878 19.68 111.451 19.9467 111.051 20.08ZM115.451 37.64C115.638 37.96 115.864 38.4533 116.131 39.12C116.398 39.76 116.558 40.3867 116.611 41L111.211 43.64C109.184 42.7067 107.798 41.5067 107.051 40.04L107.891 27.48L104.971 28.36C104.784 28.04 104.558 27.56 104.291 26.92C104.024 26.2533 103.864 25.6133 103.811 25L109.211 22.36C109.478 22.3867 109.864 22.5333 110.371 22.8C110.878 23.0667 111.371 23.36 111.851 23.68C112.358 24 112.744 24.2667 113.011 24.48L111.891 33.28V38.72L115.451 37.64ZM138.848 37.84C139.088 38.16 139.328 38.6133 139.568 39.2C139.808 39.7867 139.954 40.3867 140.008 41L134.608 43.64C133.914 43.2933 133.181 42.84 132.408 42.28C131.634 41.72 131.021 41.1067 130.568 40.44C131.048 38.76 131.368 37.0667 131.528 35.36C131.688 33.6533 131.728 32.0667 131.648 30.6C131.594 29.1067 131.448 27.8933 131.208 26.96C130.541 27.2533 129.821 27.7733 129.048 28.52C128.301 29.24 127.554 30.1067 126.808 31.12C126.061 32.1333 125.368 33.2267 124.728 34.4L124.488 43C123.901 43.16 123.221 43.24 122.448 43.24C121.674 43.24 120.981 43.16 120.368 43C119.541 42.12 118.861 41.12 118.328 40C118.568 38.8 118.888 37.64 119.288 36.52C119.714 35.4 120.181 34.3467 120.688 33.36L120.728 32.76L120.248 27.24L116.768 28.12C116.581 27.8 116.354 27.36 116.088 26.8C115.821 26.2133 115.661 25.6133 115.608 25L121.008 22.36C121.274 22.3867 121.648 22.5333 122.128 22.8C122.634 23.0667 123.128 23.36 123.608 23.68C124.114 23.9733 124.488 24.2267 124.728 24.44L124.568 27.8C126.061 26.0933 127.554 24.76 129.048 23.8C130.568 22.84 131.821 22.36 132.808 22.36C133.208 22.5733 133.648 22.9467 134.128 23.48C134.608 24.0133 135.048 24.6133 135.448 25.28C135.848 25.92 136.128 26.56 136.288 27.2L135.608 38.68L138.848 37.84ZM159.322 26.72C158.868 28.6667 158.202 30.5067 157.322 32.24L158.242 45.4C157.975 45.9867 157.575 46.6667 157.042 47.44C156.535 48.2133 155.962 48.96 155.322 49.68C154.708 50.4 154.095 50.9733 153.482 51.4C152.335 51.72 151.082 51.9333 149.722 52.04C148.362 52.1733 147.002 52.2 145.642 52.12C144.282 52.04 143.028 51.8933 141.882 51.68C141.855 51.2533 141.868 50.72 141.922 50.08C141.975 49.4667 142.055 48.8533 142.162 48.24C142.295 47.6267 142.455 47.1333 142.642 46.76C143.495 47.08 144.468 47.32 145.562 47.48C146.682 47.6667 147.828 47.76 149.002 47.76C150.175 47.76 151.255 47.6933 152.242 47.56C152.855 46.1467 153.255 44.6667 153.442 43.12C153.628 41.6 153.735 39.76 153.762 37.6C152.295 39.36 150.788 40.7867 149.242 41.88C147.695 42.9467 146.362 43.5333 145.242 43.64C144.842 43.4267 144.348 43.0533 143.762 42.52C143.202 41.96 142.668 41.3467 142.162 40.68C141.682 39.9867 141.362 39.3333 141.202 38.72L142.042 27.68C142.442 26.8267 143.015 25.9733 143.762 25.12C144.508 24.24 145.255 23.5333 146.002 23C147.922 22.6533 149.788 22.4533 151.602 22.4C153.415 22.32 155.415 22.6267 157.602 23.32C157.895 23.64 158.162 24.0267 158.402 24.48C158.642 24.9333 158.842 25.3733 159.002 25.8C159.188 26.2 159.295 26.5067 159.322 26.72ZM146.722 38.76C147.735 38.3867 148.855 37.5733 150.082 36.32C151.308 35.0667 152.415 33.5867 153.402 31.88L153.362 26.4C152.268 26.3733 151.202 26.4267 150.162 26.56C149.122 26.6933 148.135 26.8933 147.202 27.16C146.722 28.4933 146.375 29.8533 146.162 31.24C145.975 32.6 145.882 33.8667 145.882 35.04C145.908 36.1867 146.002 37.1067 146.162 37.8C146.322 38.4933 146.508 38.8133 146.722 38.76ZM177.829 14.2C178.123 14.2533 178.523 14.4 179.029 14.64C179.536 14.88 180.029 15.1467 180.509 15.44C181.016 15.7333 181.389 16.0133 181.629 16.28L180.909 38.36C180.429 39.16 179.749 40 178.869 40.88C178.016 41.76 177.216 42.4667 176.469 43H168.229C167.803 42.9467 167.256 42.76 166.589 42.44C165.923 42.0933 165.229 41.68 164.509 41.2C163.789 40.6933 163.136 40.16 162.549 39.6C161.989 39.04 161.589 38.52 161.349 38.04L162.469 29.56L161.989 15L163.149 14.2C163.443 14.2533 163.843 14.4133 164.349 14.68C164.883 14.9467 165.403 15.2933 165.909 15.72C166.416 16.12 166.789 16.5867 167.029 17.12L166.669 30.08C166.643 31.7067 166.656 33.2933 166.709 34.84C166.763 36.36 166.909 37.6667 167.149 38.76L175.989 37.08L177.149 29.56L176.669 15L177.829 14.2ZM200.869 22.36C201.349 22.5733 201.855 22.92 202.389 23.4C202.922 23.88 203.415 24.4533 203.869 25.12C204.322 25.76 204.642 26.4267 204.829 27.12L204.029 38.32C203.629 39.1733 203.055 40.04 202.309 40.92C201.562 41.7733 200.815 42.4667 200.069 43C198.895 43.2133 197.855 43.3733 196.949 43.48C196.042 43.5867 195.175 43.6267 194.349 43.6C193.522 43.6 192.615 43.5333 191.629 43.4V51.24L190.429 52.2C190.162 52.1733 189.762 52.08 189.229 51.92C188.722 51.76 188.215 51.5467 187.709 51.28C187.229 51.04 186.869 50.8133 186.629 50.6L187.989 32.76L187.629 27.28L184.229 28.16C183.989 27.84 183.749 27.3867 183.509 26.8C183.269 26.2133 183.122 25.6133 183.069 25L188.469 22.36C188.735 22.3867 189.109 22.5333 189.589 22.8C190.095 23.0667 190.589 23.36 191.069 23.68C191.575 23.9733 191.949 24.2267 192.189 24.44L191.989 28.4C193.055 27.1733 194.135 26.1067 195.229 25.2C196.322 24.2933 197.362 23.6 198.349 23.12C199.335 22.6133 200.175 22.36 200.869 22.36ZM199.069 38.8C199.495 37.1733 199.789 35.5867 199.949 34.04C200.109 32.4933 200.162 31.1067 200.109 29.88C200.082 28.6267 199.989 27.64 199.829 26.92C199.055 27.16 198.175 27.72 197.189 28.6C196.202 29.4533 195.215 30.5067 194.229 31.76C193.269 33.0133 192.415 34.3467 191.669 35.76V39.52C192.949 39.6533 194.215 39.6533 195.469 39.52C196.722 39.3867 197.922 39.1467 199.069 38.8Z" fill="black"/>
</svg>
